M48
; DRILL file {KiCad (6.0.7)} date Sun Mar 12 23:25:01 2023
; FORMAT={-:-/ absolute / inch / decimal}
; #@! TF.CreationDate,2023-03-12T23:25:01-05:00
; #@! TF.GenerationSoftware,Kicad,Pcbnew,(6.0.7)
; #@! TF.FileFunction,Plated,1,2,PTH
FMAT,2
INCH
; #@! TA.AperFunction,Plated,PTH,ViaDrill
T1C0.0157
; #@! TA.AperFunction,Plated,PTH,ComponentDrill
T2C0.0315
; #@! TA.AperFunction,Plated,PTH,ComponentDrill
T3C0.0394
; #@! TA.AperFunction,Plated,PTH,ComponentDrill
T4C0.0429
; #@! TA.AperFunction,Plated,PTH,ComponentDrill
T5C0.0433
; #@! TA.AperFunction,Plated,PTH,ComponentDrill
T6C0.0472
; #@! TA.AperFunction,Plated,PTH,ComponentDrill
T7C0.0835
%
G90
G05
T1
X4.7244Y-2.5591
T2
X4.6908Y-2.28
X4.7892Y-2.28
T3
X3.38Y-2.2206
X3.38Y-2.3206
X3.38Y-2.4206
X3.52Y-1.88
X3.62Y-1.88
X4.1098Y-1.88
X4.2098Y-1.88
X6.06Y-2.2704
X6.06Y-2.3704
X6.06Y-2.4704
X6.06Y-2.5704
X6.06Y-2.9806
X6.06Y-3.0806
X6.06Y-3.1806
T4
X5.1704Y-1.794
T5
X3.412Y-3.6114
X3.412Y-3.7886
X3.668Y-3.6114
X3.668Y-3.7886
X3.852Y-3.6114
X3.852Y-3.7886
X4.108Y-3.6114
X4.108Y-3.7886
X4.292Y-3.6114
X4.292Y-3.7886
X4.548Y-3.6114
X4.548Y-3.7886
T6
X3.38Y-2.84
X3.38Y-3.44
X3.56Y-2.84
X3.56Y-3.44
X3.74Y-2.84
X3.74Y-3.44
X3.92Y-2.84
X3.92Y-3.44
X4.16Y-2.84
X4.16Y-3.44
X4.34Y-2.84
X4.34Y-3.44
X4.58Y-2.84
X4.58Y-3.44
X4.8Y-3.04
X4.8Y-3.22
X4.8Y-3.4
X4.8Y-3.58
X4.8Y-3.76
X5.3Y-2.36
X5.3Y-2.54
X5.3Y-2.72
X5.4Y-3.04
X5.4Y-3.22
X5.4Y-3.4
X5.4Y-3.58
X5.4Y-3.76
X5.9Y-2.36
X5.9Y-2.54
X5.9Y-2.72
T7
X4.77Y-1.9456
T0
M30
