%TF.GenerationSoftware,KiCad,Pcbnew,(6.0.7)*%
%TF.CreationDate,2023-09-19T20:50:44-05:00*%
%TF.ProjectId,CounterProject,436f756e-7465-4725-9072-6f6a6563742e,rev?*%
%TF.SameCoordinates,Original*%
%TF.FileFunction,Copper,L2,Inr*%
%TF.FilePolarity,Positive*%
%FSLAX46Y46*%
G04 Gerber Fmt 4.6, Leading zero omitted, Abs format (unit mm)*
G04 Created by KiCad (PCBNEW (6.0.7)) date 2023-09-19 20:50:44*
%MOMM*%
%LPD*%
G01*
G04 APERTURE LIST*
%TA.AperFunction,ComponentPad*%
%ADD10R,1.308000X1.308000*%
%TD*%
%TA.AperFunction,ComponentPad*%
%ADD11C,1.308000*%
%TD*%
%TA.AperFunction,ComponentPad*%
%ADD12R,1.700000X1.700000*%
%TD*%
%TA.AperFunction,ComponentPad*%
%ADD13O,1.700000X1.700000*%
%TD*%
%TA.AperFunction,ComponentPad*%
%ADD14C,0.660400*%
%TD*%
%TA.AperFunction,ViaPad*%
%ADD15C,0.250000*%
%TD*%
%TA.AperFunction,ViaPad*%
%ADD16C,0.800000*%
%TD*%
%TA.AperFunction,Conductor*%
%ADD17C,0.250000*%
%TD*%
G04 APERTURE END LIST*
D10*
%TO.N,/VBAT*%
%TO.C,BT2*%
X184700000Y-41200000D03*
D11*
%TO.N,GND*%
X184700000Y-39200000D03*
%TD*%
D12*
%TO.N,Net-(J3-Pad1)*%
%TO.C,J3*%
X160000000Y-41000000D03*
D13*
%TO.N,/VPWR*%
X160000000Y-38460000D03*
%TO.N,GND*%
X160000000Y-35920000D03*
%TD*%
D14*
%TO.N,N/C*%
%TO.C,J1*%
X175889999Y-26110801D03*
X170110001Y-26110801D03*
%TD*%
D15*
%TO.N,/VBAT*%
X179200000Y-27800000D03*
X179200000Y-24650500D03*
X182800000Y-28000000D03*
X182900000Y-39200000D03*
X166000000Y-29700000D03*
X179400000Y-29850000D03*
%TO.N,GND*%
X174700001Y-35800001D03*
X174600000Y-24400000D03*
X170200000Y-28400000D03*
X184800000Y-35800000D03*
X161200000Y-22300000D03*
X173100000Y-30424500D03*
X185000000Y-22400000D03*
D16*
X162124500Y-38800000D03*
D15*
X180400000Y-23400000D03*
X176200539Y-35449500D03*
X184800000Y-31600000D03*
X171300000Y-24400000D03*
X177775255Y-35554815D03*
%TO.N,/SW4_IN*%
X183500000Y-32100000D03*
X165949500Y-25300000D03*
X165024093Y-32559184D03*
%TO.N,/SDA*%
X184500000Y-28000000D03*
X172300000Y-28100000D03*
%TO.N,/SCL*%
X172300000Y-30500000D03*
X183800000Y-27900000D03*
%TO.N,/I2C_PULLUP*%
X180549500Y-30500195D03*
X169700000Y-30400000D03*
%TO.N,/UPDI*%
X181900000Y-31000000D03*
X160600000Y-28400000D03*
%TO.N,/SW1_IN*%
X178114500Y-35100000D03*
%TO.N,/SW2_IN*%
X166100000Y-33100000D03*
X181000000Y-32900000D03*
%TO.N,/VPWR*%
X160600000Y-37400000D03*
X175500000Y-34800000D03*
X177500000Y-31950500D03*
X180800000Y-32400000D03*
X181000000Y-23000000D03*
X167200000Y-35200000D03*
%TO.N,/SW3_IN*%
X182300000Y-24600000D03*
X181700000Y-32800000D03*
%TO.N,Net-(C3-Pad1)*%
X170500000Y-28800000D03*
X168100000Y-28000000D03*
X175200000Y-27900000D03*
X182500000Y-27300000D03*
X175600000Y-25400000D03*
X182600000Y-25200000D03*
X178000000Y-25100000D03*
%TO.N,/DISP_RESET*%
X172400000Y-34750500D03*
X178600000Y-30900000D03*
%TO.N,Net-(C5-Pad1)*%
X179750000Y-32450000D03*
X175200000Y-32400000D03*
X181900000Y-38800000D03*
X174642390Y-30380379D03*
%TO.N,Net-(C5-Pad2)*%
X174300000Y-28930000D03*
X181900000Y-35350501D03*
X181924500Y-29000000D03*
%TO.N,Net-(C6-Pad1)*%
X179200000Y-30900000D03*
X171000000Y-34750500D03*
X170775500Y-31000000D03*
%TO.N,Net-(C6-Pad2)*%
X180675000Y-33925000D03*
X168800000Y-34750500D03*
%TO.N,Net-(C9-Pad2)*%
X164200000Y-34824500D03*
X160600000Y-33800000D03*
%TO.N,Net-(C10-Pad2)*%
X166100000Y-30300000D03*
X165050500Y-30281466D03*
X163500000Y-35200000D03*
%TO.N,/DISP*%
X173500000Y-32024500D03*
X176800000Y-37000000D03*
X178900000Y-37600000D03*
X160800000Y-31600000D03*
X180100000Y-30900000D03*
%TO.N,Net-(J1-PadA5)*%
X174200000Y-24849500D03*
X159700000Y-24000000D03*
%TO.N,Net-(J1-PadB5)*%
X165298524Y-24400506D03*
X170700000Y-25200000D03*
%TD*%
D17*
%TO.N,/VBAT*%
X179200000Y-27800000D02*
X179200000Y-24650500D01*
X182900000Y-28100000D02*
X182800000Y-28000000D01*
X179400000Y-28000000D02*
X179200000Y-27800000D01*
X179400000Y-29850000D02*
X179400000Y-28000000D01*
X182900000Y-39200000D02*
X182900000Y-28100000D01*
%TO.N,GND*%
X170200000Y-28400000D02*
X171300000Y-27300000D01*
X184800000Y-31600000D02*
X184800000Y-35800000D01*
X173100000Y-30400000D02*
X173100000Y-30424500D01*
X170550000Y-29850000D02*
X172550000Y-29850000D01*
X170200000Y-28400000D02*
X170000000Y-28600000D01*
X171300000Y-27300000D02*
X171300000Y-24400000D01*
X170200000Y-28400000D02*
X170270000Y-28330000D01*
X185030299Y-31369701D02*
X185030299Y-22430299D01*
X184800000Y-31600000D02*
X185030299Y-31369701D01*
X174700000Y-24500000D02*
X174600000Y-24400000D01*
X170000000Y-28600000D02*
X170000000Y-29300000D01*
X170000000Y-29300000D02*
X170550000Y-29850000D01*
X172550000Y-29850000D02*
X173100000Y-30400000D01*
X185030299Y-22430299D02*
X185000000Y-22400000D01*
%TO.N,/SW4_IN*%
X165300000Y-31400000D02*
X165530000Y-31170000D01*
X166000000Y-27800000D02*
X166000000Y-25300000D01*
X165024093Y-32559184D02*
X165024093Y-31675907D01*
X165024093Y-31675907D02*
X165300000Y-31400000D01*
X165900000Y-27900000D02*
X166000000Y-27800000D01*
X165530000Y-28270000D02*
X165900000Y-27900000D01*
X166000000Y-25300000D02*
X165949500Y-25300000D01*
X165530000Y-31170000D02*
X165530000Y-28270000D01*
%TO.N,/VPWR*%
X181000000Y-31700000D02*
X181000000Y-32200000D01*
X181000000Y-32200000D02*
X180800000Y-32400000D01*
X181000000Y-31700000D02*
X181000000Y-23000000D01*
%TO.N,/SW3_IN*%
X181450000Y-31300000D02*
X181450000Y-25450000D01*
X181700000Y-32800000D02*
X181450000Y-31300000D01*
X181450000Y-25450000D02*
X182300000Y-24600000D01*
%TO.N,Net-(C3-Pad1)*%
X175000000Y-28400000D02*
X175164798Y-28235202D01*
X170500000Y-28800000D02*
X171300000Y-28000000D01*
X171300000Y-28000000D02*
X171600000Y-28000000D01*
X175164798Y-28235202D02*
X175164798Y-28164798D01*
X182600000Y-27200000D02*
X182500000Y-27300000D01*
X171600000Y-28000000D02*
X171970000Y-27630000D01*
X173500000Y-28400000D02*
X175000000Y-28400000D01*
X175200000Y-27900000D02*
X175164798Y-28164798D01*
X175164798Y-28164798D02*
X175164798Y-25800000D01*
X182600000Y-25200000D02*
X182600000Y-27200000D01*
X175164798Y-25800000D02*
X175564798Y-25400000D01*
X175564798Y-25400000D02*
X175600000Y-25400000D01*
X171970000Y-27630000D02*
X172730000Y-27630000D01*
X172730000Y-27630000D02*
X173500000Y-28400000D01*
%TO.N,Net-(C5-Pad1)*%
X181700000Y-38800000D02*
X181900000Y-38800000D01*
X180158408Y-37258408D02*
X181700000Y-38800000D01*
X174642390Y-30380379D02*
X174642390Y-31842390D01*
X174642390Y-31842390D02*
X175200000Y-32400000D01*
X180158408Y-32858408D02*
X180158408Y-37258408D01*
X179750000Y-32450000D02*
X180158408Y-32858408D01*
%TO.N,Net-(C5-Pad2)*%
X182400000Y-31700000D02*
X182400000Y-30900000D01*
X181900000Y-33300000D02*
X182300000Y-32900000D01*
X182300000Y-32900000D02*
X182400000Y-31700000D01*
X182400000Y-30900000D02*
X182300000Y-29300000D01*
X181900000Y-35350501D02*
X181900000Y-33300000D01*
X182000000Y-29000000D02*
X181924500Y-29000000D01*
X182300000Y-29300000D02*
X182000000Y-29000000D01*
%TO.N,Net-(C6-Pad1)*%
X170775500Y-34526000D02*
X171000000Y-34750500D01*
X170775500Y-31000000D02*
X170775500Y-34526000D01*
%TO.N,Net-(C10-Pad2)*%
X163500000Y-31831966D02*
X165050500Y-30281466D01*
X163500000Y-35200000D02*
X163500000Y-31831966D01*
%TD*%
M02*
