%TF.GenerationSoftware,KiCad,Pcbnew,(6.0.7)*%
%TF.CreationDate,2023-09-19T20:50:44-05:00*%
%TF.ProjectId,CounterProject,436f756e-7465-4725-9072-6f6a6563742e,rev?*%
%TF.SameCoordinates,Original*%
%TF.FileFunction,Copper,L1,Top*%
%TF.FilePolarity,Positive*%
%FSLAX46Y46*%
G04 Gerber Fmt 4.6, Leading zero omitted, Abs format (unit mm)*
G04 Created by KiCad (PCBNEW (6.0.7)) date 2023-09-19 20:50:44*
%MOMM*%
%LPD*%
G01*
G04 APERTURE LIST*
G04 Aperture macros list*
%AMRoundRect*
0 Rectangle with rounded corners*
0 $1 Rounding radius*
0 $2 $3 $4 $5 $6 $7 $8 $9 X,Y pos of 4 corners*
0 Add a 4 corners polygon primitive as box body*
4,1,4,$2,$3,$4,$5,$6,$7,$8,$9,$2,$3,0*
0 Add four circle primitives for the rounded corners*
1,1,$1+$1,$2,$3*
1,1,$1+$1,$4,$5*
1,1,$1+$1,$6,$7*
1,1,$1+$1,$8,$9*
0 Add four rect primitives between the rounded corners*
20,1,$1+$1,$2,$3,$4,$5,0*
20,1,$1+$1,$4,$5,$6,$7,0*
20,1,$1+$1,$6,$7,$8,$9,0*
20,1,$1+$1,$8,$9,$2,$3,0*%
G04 Aperture macros list end*
%TA.AperFunction,SMDPad,CuDef*%
%ADD10RoundRect,0.250000X0.325000X0.650000X-0.325000X0.650000X-0.325000X-0.650000X0.325000X-0.650000X0*%
%TD*%
%TA.AperFunction,SMDPad,CuDef*%
%ADD11RoundRect,0.150000X-0.512500X-0.150000X0.512500X-0.150000X0.512500X0.150000X-0.512500X0.150000X0*%
%TD*%
%TA.AperFunction,ComponentPad*%
%ADD12R,1.308000X1.308000*%
%TD*%
%TA.AperFunction,ComponentPad*%
%ADD13C,1.308000*%
%TD*%
%TA.AperFunction,SMDPad,CuDef*%
%ADD14RoundRect,0.250000X-0.312500X-0.625000X0.312500X-0.625000X0.312500X0.625000X-0.312500X0.625000X0*%
%TD*%
%TA.AperFunction,SMDPad,CuDef*%
%ADD15RoundRect,0.250000X0.312500X0.625000X-0.312500X0.625000X-0.312500X-0.625000X0.312500X-0.625000X0*%
%TD*%
%TA.AperFunction,SMDPad,CuDef*%
%ADD16RoundRect,0.250000X-0.650000X0.325000X-0.650000X-0.325000X0.650000X-0.325000X0.650000X0.325000X0*%
%TD*%
%TA.AperFunction,ComponentPad*%
%ADD17R,1.700000X1.700000*%
%TD*%
%TA.AperFunction,ComponentPad*%
%ADD18O,1.700000X1.700000*%
%TD*%
%TA.AperFunction,SMDPad,CuDef*%
%ADD19RoundRect,0.100000X0.100000X1.170000X-0.100000X1.170000X-0.100000X-1.170000X0.100000X-1.170000X0*%
%TD*%
%TA.AperFunction,SMDPad,CuDef*%
%ADD20RoundRect,0.250000X0.650000X-0.325000X0.650000X0.325000X-0.650000X0.325000X-0.650000X-0.325000X0*%
%TD*%
%TA.AperFunction,SMDPad,CuDef*%
%ADD21R,1.320800X0.508000*%
%TD*%
%TA.AperFunction,WasherPad*%
%ADD22O,1.000000X2.100000*%
%TD*%
%TA.AperFunction,SMDPad,CuDef*%
%ADD23O,0.990600X2.100000*%
%TD*%
%TA.AperFunction,SMDPad,CuDef*%
%ADD24O,0.990600X2.108200*%
%TD*%
%TA.AperFunction,ComponentPad*%
%ADD25C,0.660400*%
%TD*%
%TA.AperFunction,SMDPad,CuDef*%
%ADD26R,0.584200X1.143000*%
%TD*%
%TA.AperFunction,SMDPad,CuDef*%
%ADD27R,0.304800X1.143000*%
%TD*%
%TA.AperFunction,SMDPad,CuDef*%
%ADD28RoundRect,0.150000X0.150000X-0.825000X0.150000X0.825000X-0.150000X0.825000X-0.150000X-0.825000X0*%
%TD*%
%TA.AperFunction,SMDPad,CuDef*%
%ADD29RoundRect,0.250000X-0.325000X-0.650000X0.325000X-0.650000X0.325000X0.650000X-0.325000X0.650000X0*%
%TD*%
%TA.AperFunction,ViaPad*%
%ADD30C,0.250000*%
%TD*%
%TA.AperFunction,ViaPad*%
%ADD31C,0.800000*%
%TD*%
%TA.AperFunction,Conductor*%
%ADD32C,0.250000*%
%TD*%
G04 APERTURE END LIST*
D10*
%TO.P,C7,1*%
%TO.N,GND*%
X162675000Y-31600000D03*
%TO.P,C7,2*%
%TO.N,/DISP*%
X159725000Y-31600000D03*
%TD*%
D11*
%TO.P,U3,1,VIN*%
%TO.N,/VBAT*%
X179200000Y-22150000D03*
%TO.P,U3,2,GND*%
%TO.N,GND*%
X179200000Y-23100000D03*
%TO.P,U3,3,EN*%
%TO.N,/VBAT*%
X179200000Y-24050000D03*
%TO.P,U3,4,NC*%
%TO.N,unconnected-(U3-Pad4)*%
X181475000Y-24050000D03*
%TO.P,U3,5,VOUT*%
%TO.N,/VPWR*%
X181475000Y-22150000D03*
%TD*%
D12*
%TO.P,BT2,1,+*%
%TO.N,/VBAT*%
X184700000Y-41200000D03*
D13*
%TO.P,BT2,2,-*%
%TO.N,GND*%
X184700000Y-39200000D03*
%TD*%
D14*
%TO.P,R7,1*%
%TO.N,Net-(J1-PadA5)*%
X159737500Y-22600000D03*
%TO.P,R7,2*%
%TO.N,GND*%
X162662500Y-22600000D03*
%TD*%
D10*
%TO.P,C2,1*%
%TO.N,/VBAT*%
X167175000Y-29200000D03*
%TO.P,C2,2*%
%TO.N,GND*%
X164225000Y-29200000D03*
%TD*%
%TO.P,C9,1*%
%TO.N,GND*%
X162675000Y-33800000D03*
%TO.P,C9,2*%
%TO.N,Net-(C9-Pad2)*%
X159725000Y-33800000D03*
%TD*%
D15*
%TO.P,R3,1*%
%TO.N,/SDA*%
X171662500Y-29200000D03*
%TO.P,R3,2*%
%TO.N,/I2C_PULLUP*%
X168737500Y-29200000D03*
%TD*%
D16*
%TO.P,C8,1*%
%TO.N,GND*%
X173600000Y-31125000D03*
%TO.P,C8,2*%
%TO.N,/DISP*%
X173600000Y-34075000D03*
%TD*%
D17*
%TO.P,J3,1,Pin_1*%
%TO.N,Net-(J3-Pad1)*%
X160000000Y-41000000D03*
D18*
%TO.P,J3,2,Pin_2*%
%TO.N,/VPWR*%
X160000000Y-38460000D03*
%TO.P,J3,3,Pin_3*%
%TO.N,GND*%
X160000000Y-35920000D03*
%TD*%
D19*
%TO.P,U4,1,NC(GND)*%
%TO.N,GND*%
X182400000Y-37000000D03*
%TO.P,U4,2,C2P*%
%TO.N,Net-(C5-Pad2)*%
X181700000Y-37000000D03*
%TO.P,U4,3,C2N*%
%TO.N,Net-(C5-Pad1)*%
X181000000Y-37000000D03*
%TO.P,U4,4,C1P*%
%TO.N,Net-(C6-Pad2)*%
X180300000Y-37000000D03*
%TO.P,U4,5,C1N*%
%TO.N,Net-(C6-Pad1)*%
X179600000Y-37000000D03*
%TO.P,U4,6,VBAT*%
%TO.N,/DISP*%
X178900000Y-37000000D03*
%TO.P,U4,7,NC*%
%TO.N,unconnected-(U4-Pad7)*%
X178200000Y-37000000D03*
%TO.P,U4,8,VSS*%
%TO.N,GND*%
X177500000Y-37000000D03*
%TO.P,U4,9,VDD*%
%TO.N,/DISP*%
X176800000Y-37000000D03*
%TO.P,U4,10,BS0*%
%TO.N,GND*%
X176100000Y-37000000D03*
%TO.P,U4,11,BS1*%
%TO.N,/DISP*%
X175400000Y-37000000D03*
%TO.P,U4,12,BS2*%
%TO.N,GND*%
X174700000Y-37000000D03*
%TO.P,U4,13,/CS*%
%TO.N,unconnected-(U4-Pad13)*%
X174000000Y-37000000D03*
%TO.P,U4,14,/RES*%
%TO.N,/DISP_RESET*%
X173300000Y-37000000D03*
%TO.P,U4,15,DC/I2C_SA0*%
%TO.N,unconnected-(U4-Pad15)*%
X172600000Y-37000000D03*
%TO.P,U4,16,R/W*%
%TO.N,unconnected-(U4-Pad16)*%
X171900000Y-37000000D03*
%TO.P,U4,17,E/RD*%
%TO.N,unconnected-(U4-Pad17)*%
X171200000Y-37000000D03*
%TO.P,U4,18,D0/SPI_SCLK/I2C_SCK*%
%TO.N,/SCL*%
X170500000Y-37000000D03*
%TO.P,U4,19,D1/SPI_SDIN/I2C_SDA*%
%TO.N,/SDA*%
X169800000Y-37000000D03*
%TO.P,U4,20,D2/I2C_SDA*%
X169100000Y-37000000D03*
%TO.P,U4,21,D3*%
%TO.N,unconnected-(U4-Pad21)*%
X168400000Y-37000000D03*
%TO.P,U4,22,D4*%
%TO.N,unconnected-(U4-Pad22)*%
X167700000Y-37000000D03*
%TO.P,U4,23,D5*%
%TO.N,unconnected-(U4-Pad23)*%
X167000000Y-37000000D03*
%TO.P,U4,24,D6*%
%TO.N,unconnected-(U4-Pad24)*%
X166300000Y-37000000D03*
%TO.P,U4,25,D7*%
%TO.N,unconnected-(U4-Pad25)*%
X165600000Y-37000000D03*
%TO.P,U4,26,IREF*%
%TO.N,Net-(R4-Pad2)*%
X164900000Y-37000000D03*
%TO.P,U4,27,VCOMH*%
%TO.N,Net-(C9-Pad2)*%
X164200000Y-37000000D03*
%TO.P,U4,28,VCC*%
%TO.N,Net-(C10-Pad2)*%
X163500000Y-37000000D03*
%TO.P,U4,29,VLSS*%
%TO.N,GND*%
X162800000Y-37000000D03*
%TO.P,U4,30,NC(GND)*%
X162100000Y-37000000D03*
%TD*%
D20*
%TO.P,C1,1*%
%TO.N,/VPWR*%
X175800000Y-34075000D03*
%TO.P,C1,2*%
%TO.N,GND*%
X175800000Y-31125000D03*
%TD*%
D10*
%TO.P,C4,1*%
%TO.N,/VPWR*%
X167175000Y-33600000D03*
%TO.P,C4,2*%
%TO.N,GND*%
X164225000Y-33600000D03*
%TD*%
%TO.P,C6,1*%
%TO.N,Net-(C6-Pad1)*%
X171675000Y-33600000D03*
%TO.P,C6,2*%
%TO.N,Net-(C6-Pad2)*%
X168725000Y-33600000D03*
%TD*%
D14*
%TO.P,R2,1*%
%TO.N,/UPDI*%
X159737500Y-29400000D03*
%TO.P,R2,2*%
%TO.N,Net-(J3-Pad1)*%
X162662500Y-29400000D03*
%TD*%
%TO.P,R4,1*%
%TO.N,GND*%
X164237500Y-24800000D03*
%TO.P,R4,2*%
%TO.N,Net-(R4-Pad2)*%
X167162500Y-24800000D03*
%TD*%
D10*
%TO.P,C5,1*%
%TO.N,Net-(C5-Pad1)*%
X176175000Y-29200000D03*
%TO.P,C5,2*%
%TO.N,Net-(C5-Pad2)*%
X173225000Y-29200000D03*
%TD*%
D21*
%TO.P,U2,1,CE*%
%TO.N,Net-(C3-Pad1)*%
X179004600Y-25449999D03*
%TO.P,U2,2,VSS*%
%TO.N,GND*%
X179004600Y-26400000D03*
%TO.P,U2,3,VBAT*%
%TO.N,/VBAT*%
X179004600Y-27350001D03*
%TO.P,U2,4,VDD*%
%TO.N,Net-(C3-Pad1)*%
X181595400Y-27350001D03*
%TO.P,U2,5,PROG*%
%TO.N,GND*%
X181595400Y-25449999D03*
%TD*%
D10*
%TO.P,C3,1*%
%TO.N,Net-(C3-Pad1)*%
X167175000Y-27000000D03*
%TO.P,C3,2*%
%TO.N,GND*%
X164225000Y-27000000D03*
%TD*%
D14*
%TO.P,R8,1*%
%TO.N,GND*%
X164237500Y-22600000D03*
%TO.P,R8,2*%
%TO.N,Net-(J1-PadB5)*%
X167162500Y-22600000D03*
%TD*%
D15*
%TO.P,R1,1*%
%TO.N,/SCL*%
X171662500Y-31400000D03*
%TO.P,R1,2*%
%TO.N,/I2C_PULLUP*%
X168737500Y-31400000D03*
%TD*%
D22*
%TO.P,J1,*%
%TO.N,*%
X168679998Y-26610800D03*
X168700000Y-22600000D03*
X177300000Y-22600000D03*
X177320002Y-26610800D03*
D23*
%TO.P,J1,13*%
%TO.N,N/C*%
X177300000Y-22600000D03*
%TO.P,J1,14*%
X168700000Y-22600000D03*
D24*
%TO.P,J1,15*%
X177320002Y-26610800D03*
%TO.P,J1,16*%
X168679998Y-26610800D03*
D25*
%TO.P,J1,17*%
X175889999Y-26110801D03*
%TO.P,J1,18*%
X170110001Y-26110801D03*
D26*
%TO.P,J1,A1-B12,GND*%
%TO.N,GND*%
X176200000Y-27185800D03*
%TO.P,J1,A4-B9,VBUS*%
%TO.N,Net-(C3-Pad1)*%
X175400001Y-27185800D03*
D27*
%TO.P,J1,A5,CC1*%
%TO.N,Net-(J1-PadA5)*%
X174250000Y-27185800D03*
%TO.P,J1,A6,DP1*%
%TO.N,unconnected-(J1-PadA6)*%
X173250000Y-27185800D03*
%TO.P,J1,A7,DN1*%
%TO.N,unconnected-(J1-PadA7)*%
X172750000Y-27185800D03*
%TO.P,J1,A8,SBU1*%
%TO.N,unconnected-(J1-PadA8)*%
X171750000Y-27185800D03*
D26*
%TO.P,J1,B1-A12,GND*%
%TO.N,GND*%
X169800000Y-27185800D03*
%TO.P,J1,B4-A9,VBUS*%
%TO.N,Net-(C3-Pad1)*%
X170599999Y-27185800D03*
D27*
%TO.P,J1,B5,CC2*%
%TO.N,Net-(J1-PadB5)*%
X171250001Y-27185800D03*
%TO.P,J1,B6,DP2*%
%TO.N,unconnected-(J1-PadB6)*%
X172249999Y-27185800D03*
%TO.P,J1,B7,DN2*%
%TO.N,unconnected-(J1-PadB7)*%
X173750001Y-27185800D03*
%TO.P,J1,B8,SBU2*%
%TO.N,unconnected-(J1-PadB8)*%
X174749999Y-27185800D03*
%TD*%
D28*
%TO.P,U1,1,VCC*%
%TO.N,/VPWR*%
X177490000Y-34275000D03*
%TO.P,U1,2,PA4*%
%TO.N,/SW1_IN*%
X178760000Y-34275000D03*
%TO.P,U1,3,PA5*%
%TO.N,/SW2_IN*%
X180030000Y-34275000D03*
%TO.P,U1,4,PA6*%
%TO.N,/SW3_IN*%
X181300000Y-34275000D03*
%TO.P,U1,5,PA7*%
%TO.N,/SW4_IN*%
X182570000Y-34275000D03*
%TO.P,U1,6,PB3*%
%TO.N,/RX*%
X183840000Y-34275000D03*
%TO.P,U1,7,PB2*%
%TO.N,/TX*%
X185110000Y-34275000D03*
%TO.P,U1,8,PB1*%
%TO.N,/SDA*%
X185110000Y-29325000D03*
%TO.P,U1,9,PB0*%
%TO.N,/SCL*%
X183840000Y-29325000D03*
%TO.P,U1,10,~{RESET}/PA0*%
%TO.N,/UPDI*%
X182570000Y-29325000D03*
%TO.P,U1,11,PA1*%
%TO.N,/I2C_PULLUP*%
X181300000Y-29325000D03*
%TO.P,U1,12,PA2*%
%TO.N,/DISP*%
X180030000Y-29325000D03*
%TO.P,U1,13,PA3*%
%TO.N,/DISP_RESET*%
X178760000Y-29325000D03*
%TO.P,U1,14,GND*%
%TO.N,GND*%
X177490000Y-29325000D03*
%TD*%
D29*
%TO.P,C10,1*%
%TO.N,GND*%
X164225000Y-31400000D03*
%TO.P,C10,2*%
%TO.N,Net-(C10-Pad2)*%
X167175000Y-31400000D03*
%TD*%
D30*
%TO.N,/VBAT*%
X179200000Y-27800000D03*
X179200000Y-24650500D03*
X182800000Y-28000000D03*
X182900000Y-39200000D03*
X166000000Y-29700000D03*
X179400000Y-29850000D03*
%TO.N,GND*%
X174700001Y-35800001D03*
X174600000Y-24400000D03*
X170200000Y-28400000D03*
X184800000Y-35800000D03*
X161200000Y-22300000D03*
X173100000Y-30424500D03*
X185000000Y-22400000D03*
D31*
X162124500Y-38800000D03*
D30*
X180400000Y-23400000D03*
X176200539Y-35449500D03*
X184800000Y-31600000D03*
X171300000Y-24400000D03*
X177775255Y-35554815D03*
%TO.N,/SW4_IN*%
X183500000Y-32100000D03*
X165949500Y-25300000D03*
X165024093Y-32559184D03*
%TO.N,/SDA*%
X184500000Y-28000000D03*
X172300000Y-28100000D03*
%TO.N,/SCL*%
X172300000Y-30500000D03*
X183800000Y-27900000D03*
%TO.N,/I2C_PULLUP*%
X180549500Y-30500195D03*
X169700000Y-30400000D03*
%TO.N,/UPDI*%
X181900000Y-31000000D03*
X160600000Y-28400000D03*
%TO.N,/SW1_IN*%
X178114500Y-35100000D03*
%TO.N,/SW2_IN*%
X166100000Y-33100000D03*
X181000000Y-32900000D03*
%TO.N,/VPWR*%
X160600000Y-37400000D03*
X175500000Y-34800000D03*
X177500000Y-31950500D03*
X180800000Y-32400000D03*
X181000000Y-23000000D03*
X167200000Y-35200000D03*
%TO.N,/SW3_IN*%
X182300000Y-24600000D03*
X181700000Y-32800000D03*
%TO.N,Net-(C3-Pad1)*%
X170500000Y-28800000D03*
X168100000Y-28000000D03*
X175200000Y-27900000D03*
X182500000Y-27300000D03*
X175600000Y-25400000D03*
X182600000Y-25200000D03*
X178000000Y-25100000D03*
%TO.N,/DISP_RESET*%
X172400000Y-34750500D03*
X178600000Y-30900000D03*
%TO.N,Net-(C5-Pad1)*%
X179750000Y-32450000D03*
X175200000Y-32400000D03*
X181900000Y-38800000D03*
X174642390Y-30380379D03*
%TO.N,Net-(C5-Pad2)*%
X174300000Y-28930000D03*
X181900000Y-35350501D03*
X181924500Y-29000000D03*
%TO.N,Net-(C6-Pad1)*%
X179200000Y-30900000D03*
X171000000Y-34750500D03*
X170775500Y-31000000D03*
%TO.N,Net-(C6-Pad2)*%
X180675000Y-33925000D03*
X168800000Y-34750500D03*
%TO.N,Net-(C9-Pad2)*%
X164200000Y-34824500D03*
X160600000Y-33800000D03*
%TO.N,Net-(C10-Pad2)*%
X166100000Y-30300000D03*
X165050500Y-30281466D03*
X163500000Y-35200000D03*
%TO.N,/DISP*%
X173500000Y-32024500D03*
X176800000Y-37000000D03*
X178900000Y-37600000D03*
X160800000Y-31600000D03*
X180100000Y-30900000D03*
%TO.N,Net-(J1-PadA5)*%
X174200000Y-24849500D03*
X159700000Y-24000000D03*
%TO.N,Net-(J1-PadB5)*%
X165298524Y-24400506D03*
X170700000Y-25200000D03*
%TD*%
D32*
%TO.N,/VBAT*%
X178770300Y-22150000D02*
X179200000Y-22150000D01*
X179200000Y-24650500D02*
X179200000Y-24050000D01*
X167175000Y-29200000D02*
X166500000Y-29200000D01*
X178120300Y-22800000D02*
X178770300Y-22150000D01*
X166500000Y-29200000D02*
X166000000Y-29700000D01*
X179200000Y-24050000D02*
X178450000Y-24050000D01*
X178120300Y-23720300D02*
X178120300Y-22800000D01*
X178450000Y-24050000D02*
X178120300Y-23720300D01*
X179200000Y-27545401D02*
X179004600Y-27350001D01*
X179200000Y-27800000D02*
X179200000Y-27545401D01*
X184700000Y-41200000D02*
X182900000Y-39400000D01*
X182900000Y-39400000D02*
X182900000Y-39200000D01*
%TO.N,GND*%
X176100000Y-35550039D02*
X176200539Y-35449500D01*
X162675000Y-31600000D02*
X162675000Y-33800000D01*
X164237500Y-22600000D02*
X164237500Y-33587500D01*
X182400000Y-37000000D02*
X182500000Y-37000000D01*
X162662500Y-22600000D02*
X164237500Y-22600000D01*
X173100000Y-30625000D02*
X173600000Y-31125000D01*
X181149999Y-25449999D02*
X180400000Y-24700000D01*
X181595400Y-25449999D02*
X181149999Y-25449999D01*
X164025000Y-33800000D02*
X164225000Y-33600000D01*
X177490000Y-29325000D02*
X177490000Y-28475800D01*
X162800000Y-37000000D02*
X162100000Y-37000000D01*
X177490000Y-28475800D02*
X177004100Y-27989900D01*
X177490000Y-29325000D02*
X177490000Y-30010000D01*
X177500000Y-37000000D02*
X177500000Y-35830070D01*
X180645399Y-26400000D02*
X181595400Y-25449999D01*
X174700000Y-37000000D02*
X174700001Y-35800001D01*
X162662500Y-22600000D02*
X161500000Y-22600000D01*
X177490000Y-30010000D02*
X176375000Y-31125000D01*
X164237500Y-33587500D02*
X164225000Y-33600000D01*
X169800000Y-28000000D02*
X170200000Y-28400000D01*
X176100000Y-37000000D02*
X176100000Y-35550039D01*
X176375000Y-31125000D02*
X175800000Y-31125000D01*
X180400000Y-24700000D02*
X180400000Y-23400000D01*
X177500000Y-35830070D02*
X177775255Y-35554815D01*
X175800000Y-31125000D02*
X174675000Y-31125000D01*
X182500000Y-37000000D02*
X184700000Y-39200000D01*
X173100000Y-30424500D02*
X173100000Y-30625000D01*
X176980223Y-27989900D02*
X176200000Y-27209677D01*
X174675000Y-31125000D02*
X173600000Y-31125000D01*
X162100000Y-38775500D02*
X162124500Y-38800000D01*
X176200000Y-27209677D02*
X176200000Y-27185800D01*
X177004100Y-27989900D02*
X176980223Y-27989900D01*
X162675000Y-33800000D02*
X164025000Y-33800000D01*
X179004600Y-26400000D02*
X180645399Y-26400000D01*
X169800000Y-27185800D02*
X169800000Y-28000000D01*
X180100000Y-23100000D02*
X179200000Y-23100000D01*
X162100000Y-37000000D02*
X162100000Y-38775500D01*
X180400000Y-23400000D02*
X180100000Y-23100000D01*
X161500000Y-22600000D02*
X161200000Y-22300000D01*
%TO.N,Net-(J3-Pad1)*%
X162662500Y-29400000D02*
X162100000Y-29400000D01*
X161400000Y-30100000D02*
X161400000Y-39600000D01*
X161400000Y-39600000D02*
X160000000Y-41000000D01*
X162100000Y-29400000D02*
X161400000Y-30100000D01*
%TO.N,/SW4_IN*%
X182570000Y-34275000D02*
X182570000Y-33030000D01*
X182570000Y-33030000D02*
X183500000Y-32100000D01*
%TO.N,/SDA*%
X169800000Y-31062500D02*
X171662500Y-29200000D01*
X172300000Y-28100000D02*
X172300000Y-28562500D01*
X169800000Y-37000000D02*
X169800000Y-31062500D01*
X172300000Y-28562500D02*
X171662500Y-29200000D01*
X185110000Y-29325000D02*
X185110000Y-28610000D01*
X169100000Y-37000000D02*
X169800000Y-37000000D01*
X185110000Y-28610000D02*
X184500000Y-28000000D01*
%TO.N,/SCL*%
X171662500Y-31037500D02*
X171662500Y-31400000D01*
X183840000Y-29325000D02*
X183840000Y-27940000D01*
X183840000Y-27940000D02*
X183800000Y-27900000D01*
X172300000Y-30500000D02*
X171662500Y-31037500D01*
X170500000Y-37000000D02*
X170500000Y-32562500D01*
X170500000Y-32562500D02*
X171662500Y-31400000D01*
%TO.N,/I2C_PULLUP*%
X168737500Y-31400000D02*
X168737500Y-31362500D01*
X181300000Y-29749695D02*
X181300000Y-29325000D01*
X180549500Y-30500195D02*
X181300000Y-29749695D01*
X168737500Y-31400000D02*
X168737500Y-29200000D01*
X168737500Y-31362500D02*
X169700000Y-30400000D01*
%TO.N,/UPDI*%
X182600000Y-30400000D02*
X182600000Y-29355000D01*
X182600000Y-29355000D02*
X182570000Y-29325000D01*
X159737500Y-29262500D02*
X160600000Y-28400000D01*
X159737500Y-29400000D02*
X159737500Y-29262500D01*
X182600000Y-30400000D02*
X182600000Y-30500000D01*
X182600000Y-30500000D02*
X182100000Y-31000000D01*
X182100000Y-31000000D02*
X181900000Y-31000000D01*
%TO.N,/SW1_IN*%
X178114500Y-34920500D02*
X178760000Y-34275000D01*
X178114500Y-35100000D02*
X178114500Y-34920500D01*
%TO.N,/SW2_IN*%
X180030000Y-33870000D02*
X181000000Y-32900000D01*
X180030000Y-34275000D02*
X180030000Y-33870000D01*
%TO.N,/VPWR*%
X167200000Y-35200000D02*
X167200000Y-33625000D01*
X175500000Y-34375000D02*
X175800000Y-34075000D01*
X176000000Y-34275000D02*
X175800000Y-34075000D01*
X175500000Y-34800000D02*
X175500000Y-34375000D01*
X177490000Y-31960500D02*
X177500000Y-31950500D01*
X160000000Y-38000000D02*
X160600000Y-37400000D01*
X177490000Y-34275000D02*
X176000000Y-34275000D01*
X181000000Y-23000000D02*
X181000000Y-22625000D01*
X177490000Y-34275000D02*
X177490000Y-31960500D01*
X181000000Y-22625000D02*
X181475000Y-22150000D01*
X167200000Y-33625000D02*
X167175000Y-33600000D01*
X160000000Y-38460000D02*
X160000000Y-38000000D01*
%TO.N,/SW3_IN*%
X181600000Y-33000000D02*
X181700000Y-32900000D01*
X181700000Y-32900000D02*
X181700000Y-32800000D01*
X181300000Y-33300000D02*
X181600000Y-33000000D01*
X181300000Y-34275000D02*
X181300000Y-33300000D01*
%TO.N,Net-(C3-Pad1)*%
X178000000Y-25100000D02*
X178654601Y-25100000D01*
X168100000Y-28000000D02*
X168100000Y-27925000D01*
X181645401Y-27300000D02*
X181595400Y-27350001D01*
X170670000Y-27255801D02*
X170670000Y-28630000D01*
X168100000Y-27925000D02*
X167175000Y-27000000D01*
X170670000Y-28630000D02*
X170500000Y-28800000D01*
X175400001Y-27999999D02*
X175400001Y-27185800D01*
X175200000Y-27900000D02*
X175400001Y-27999999D01*
X182500000Y-27300000D02*
X181645401Y-27300000D01*
X170599999Y-27185800D02*
X170670000Y-27255801D01*
X178654601Y-25100000D02*
X179004600Y-25449999D01*
%TO.N,/DISP_RESET*%
X173300000Y-37000000D02*
X173300000Y-35650500D01*
X178600000Y-30900000D02*
X178700000Y-29385000D01*
X173300000Y-35650500D02*
X172400000Y-34750500D01*
X178700000Y-29385000D02*
X178760000Y-29325000D01*
%TO.N,Net-(C5-Pad1)*%
X181900000Y-38800000D02*
X181628959Y-38800000D01*
X175100000Y-29500000D02*
X175100000Y-29900000D01*
X175400000Y-29200000D02*
X175100000Y-29500000D01*
X175449500Y-29200000D02*
X175400000Y-29200000D01*
X181000000Y-38171041D02*
X181000000Y-37000000D01*
X174642390Y-30357610D02*
X174642390Y-30380379D01*
X175100000Y-29900000D02*
X174642390Y-30357610D01*
X181628959Y-38800000D02*
X181000000Y-38171041D01*
X176175000Y-29200000D02*
X175449500Y-29200000D01*
%TO.N,Net-(C5-Pad2)*%
X181700000Y-35550501D02*
X181900000Y-35350501D01*
X181700000Y-37000000D02*
X181700000Y-35550501D01*
X174030000Y-29200000D02*
X174300000Y-28930000D01*
X173225000Y-29200000D02*
X174030000Y-29200000D01*
%TO.N,Net-(C6-Pad1)*%
X171000000Y-34275000D02*
X171675000Y-33600000D01*
X171000000Y-34750500D02*
X171000000Y-34275000D01*
X179600000Y-35500000D02*
X179385000Y-35285000D01*
X179385000Y-35100000D02*
X179385000Y-32885000D01*
X179200000Y-32700000D02*
X179200000Y-30900000D01*
X179385000Y-32885000D02*
X179200000Y-32700000D01*
X179385000Y-35285000D02*
X179385000Y-35100000D01*
X179600000Y-37000000D02*
X179600000Y-35500000D01*
%TO.N,Net-(C6-Pad2)*%
X168725000Y-33600000D02*
X168725000Y-34675500D01*
X180300000Y-35651751D02*
X180628078Y-35323673D01*
X180675000Y-35276751D02*
X180675000Y-33925000D01*
X180300000Y-37000000D02*
X180300000Y-35651751D01*
X168725000Y-34675500D02*
X168800000Y-34750500D01*
X180628078Y-35323673D02*
X180675000Y-35276751D01*
%TO.N,Net-(C9-Pad2)*%
X159725000Y-33800000D02*
X160600000Y-33800000D01*
X164200000Y-34824500D02*
X164200000Y-37000000D01*
%TO.N,Net-(C10-Pad2)*%
X163500000Y-37000000D02*
X163500000Y-35200000D01*
X166100000Y-30300000D02*
X166100000Y-30325000D01*
X166100000Y-30325000D02*
X167175000Y-31400000D01*
%TO.N,Net-(R4-Pad2)*%
X165500000Y-25000000D02*
X165500000Y-34700000D01*
X167162500Y-24800000D02*
X165700000Y-24800000D01*
X164900000Y-35300000D02*
X164900000Y-37000000D01*
X165500000Y-34700000D02*
X164900000Y-35300000D01*
X165700000Y-24800000D02*
X165500000Y-25000000D01*
%TO.N,/DISP*%
X159725000Y-31600000D02*
X160800000Y-31600000D01*
X180100000Y-30900000D02*
X180100000Y-29395000D01*
X175400000Y-37000000D02*
X175400000Y-35600000D01*
X173500000Y-33975000D02*
X173600000Y-34075000D01*
X175964681Y-35000000D02*
X176400000Y-35000000D01*
X175694681Y-35270000D02*
X175964681Y-35000000D01*
X173875000Y-34075000D02*
X173600000Y-34075000D01*
X180100000Y-29395000D02*
X180030000Y-29325000D01*
X176400000Y-35000000D02*
X176800000Y-35400000D01*
X178900000Y-37000000D02*
X178900000Y-37600000D01*
X175400000Y-35600000D02*
X175050000Y-35250000D01*
X175050000Y-35250000D02*
X175070000Y-35270000D01*
X173500000Y-32024500D02*
X173500000Y-33975000D01*
X175070000Y-35270000D02*
X175694681Y-35270000D01*
X176800000Y-35400000D02*
X176800000Y-37000000D01*
X175050000Y-35250000D02*
X173875000Y-34075000D01*
%TO.N,Net-(J1-PadA5)*%
X174200000Y-24849500D02*
X174227401Y-24876901D01*
X174227401Y-27163201D02*
X174250000Y-27185800D01*
X159737500Y-22600000D02*
X159737500Y-23962500D01*
X159737500Y-23962500D02*
X159700000Y-24000000D01*
X174227401Y-24876901D02*
X174227401Y-27163201D01*
%TO.N,Net-(J1-PadB5)*%
X167162500Y-22600000D02*
X167099030Y-22600000D01*
X171250001Y-25750001D02*
X171250001Y-27185800D01*
X170700000Y-25200000D02*
X171250001Y-25750001D01*
X167099030Y-22600000D02*
X165298524Y-24400506D01*
%TD*%
M02*
