%TF.GenerationSoftware,KiCad,Pcbnew,(6.0.7)*%
%TF.CreationDate,2023-09-19T20:50:44-05:00*%
%TF.ProjectId,CounterProject,436f756e-7465-4725-9072-6f6a6563742e,rev?*%
%TF.SameCoordinates,Original*%
%TF.FileFunction,Legend,Top*%
%TF.FilePolarity,Positive*%
%FSLAX46Y46*%
G04 Gerber Fmt 4.6, Leading zero omitted, Abs format (unit mm)*
G04 Created by KiCad (PCBNEW (6.0.7)) date 2023-09-19 20:50:44*
%MOMM*%
%LPD*%
G01*
G04 APERTURE LIST*
%ADD10C,0.300000*%
%ADD11C,0.100000*%
%ADD12C,0.075000*%
%ADD13C,0.150000*%
%ADD14C,0.120000*%
%ADD15C,0.127000*%
%ADD16C,0.200000*%
%ADD17C,0.152400*%
%ADD18C,0.508000*%
G04 APERTURE END LIST*
D10*
X184428571Y-23309523D02*
X183857142Y-21785714D01*
X183285714Y-23309523D01*
X185095238Y-24071428D02*
X185095238Y-25309523D01*
X184333333Y-24642857D01*
X184333333Y-24928571D01*
X184238095Y-25119047D01*
X184142857Y-25214285D01*
X183952380Y-25309523D01*
X183476190Y-25309523D01*
X183285714Y-25214285D01*
X183190476Y-25119047D01*
X183095238Y-24928571D01*
X183095238Y-24357142D01*
X183190476Y-24166666D01*
X183285714Y-24071428D01*
D11*
X178376190Y-31236952D02*
X178376190Y-30836952D01*
X178509523Y-30970285D02*
X178661904Y-30970285D01*
X178566666Y-31236952D02*
X178566666Y-30894095D01*
X178585714Y-30856000D01*
X178623809Y-30836952D01*
X178661904Y-30836952D01*
X179061904Y-30970285D02*
X179157142Y-31236952D01*
X179252380Y-30970285D02*
X179157142Y-31236952D01*
X179119047Y-31332190D01*
X179100000Y-31351238D01*
X179061904Y-31370285D01*
X179461904Y-31236952D02*
X179423809Y-31217904D01*
X179404761Y-31198857D01*
X179385714Y-31160761D01*
X179385714Y-31046476D01*
X179404761Y-31008380D01*
X179423809Y-30989333D01*
X179461904Y-30970285D01*
X179519047Y-30970285D01*
X179557142Y-30989333D01*
X179576190Y-31008380D01*
X179595238Y-31046476D01*
X179595238Y-31160761D01*
X179576190Y-31198857D01*
X179557142Y-31217904D01*
X179519047Y-31236952D01*
X179461904Y-31236952D01*
X179938095Y-30970285D02*
X179938095Y-31236952D01*
X179766666Y-30970285D02*
X179766666Y-31179809D01*
X179785714Y-31217904D01*
X179823809Y-31236952D01*
X179880952Y-31236952D01*
X179919047Y-31217904D01*
X179938095Y-31198857D01*
X180604761Y-31217904D02*
X180566666Y-31236952D01*
X180490476Y-31236952D01*
X180452380Y-31217904D01*
X180433333Y-31198857D01*
X180414285Y-31160761D01*
X180414285Y-31046476D01*
X180433333Y-31008380D01*
X180452380Y-30989333D01*
X180490476Y-30970285D01*
X180566666Y-30970285D01*
X180604761Y-30989333D01*
X180947619Y-31236952D02*
X180947619Y-31027428D01*
X180928571Y-30989333D01*
X180890476Y-30970285D01*
X180814285Y-30970285D01*
X180776190Y-30989333D01*
X180947619Y-31217904D02*
X180909523Y-31236952D01*
X180814285Y-31236952D01*
X180776190Y-31217904D01*
X180757142Y-31179809D01*
X180757142Y-31141714D01*
X180776190Y-31103619D01*
X180814285Y-31084571D01*
X180909523Y-31084571D01*
X180947619Y-31065523D01*
X181138095Y-30970285D02*
X181138095Y-31236952D01*
X181138095Y-31008380D02*
X181157142Y-30989333D01*
X181195238Y-30970285D01*
X181252380Y-30970285D01*
X181290476Y-30989333D01*
X181309523Y-31027428D01*
X181309523Y-31236952D01*
X181785714Y-31217904D02*
X181823809Y-31236952D01*
X181900000Y-31236952D01*
X181938095Y-31217904D01*
X181957142Y-31179809D01*
X181957142Y-31160761D01*
X181938095Y-31122666D01*
X181900000Y-31103619D01*
X181842857Y-31103619D01*
X181804761Y-31084571D01*
X181785714Y-31046476D01*
X181785714Y-31027428D01*
X181804761Y-30989333D01*
X181842857Y-30970285D01*
X181900000Y-30970285D01*
X181938095Y-30989333D01*
X182280952Y-31217904D02*
X182242857Y-31236952D01*
X182166666Y-31236952D01*
X182128571Y-31217904D01*
X182109523Y-31179809D01*
X182109523Y-31027428D01*
X182128571Y-30989333D01*
X182166666Y-30970285D01*
X182242857Y-30970285D01*
X182280952Y-30989333D01*
X182300000Y-31027428D01*
X182300000Y-31065523D01*
X182109523Y-31103619D01*
X182623809Y-31217904D02*
X182585714Y-31236952D01*
X182509523Y-31236952D01*
X182471428Y-31217904D01*
X182452380Y-31179809D01*
X182452380Y-31027428D01*
X182471428Y-30989333D01*
X182509523Y-30970285D01*
X182585714Y-30970285D01*
X182623809Y-30989333D01*
X182642857Y-31027428D01*
X182642857Y-31065523D01*
X182452380Y-31103619D01*
X183061904Y-30970285D02*
X183214285Y-30970285D01*
X183119047Y-30836952D02*
X183119047Y-31179809D01*
X183138095Y-31217904D01*
X183176190Y-31236952D01*
X183214285Y-31236952D01*
X183347619Y-31236952D02*
X183347619Y-30836952D01*
X183519047Y-31236952D02*
X183519047Y-31027428D01*
X183500000Y-30989333D01*
X183461904Y-30970285D01*
X183404761Y-30970285D01*
X183366666Y-30989333D01*
X183347619Y-31008380D01*
X183709523Y-31236952D02*
X183709523Y-30970285D01*
X183709523Y-30836952D02*
X183690476Y-30856000D01*
X183709523Y-30875047D01*
X183728571Y-30856000D01*
X183709523Y-30836952D01*
X183709523Y-30875047D01*
X183880952Y-31217904D02*
X183919047Y-31236952D01*
X183995238Y-31236952D01*
X184033333Y-31217904D01*
X184052380Y-31179809D01*
X184052380Y-31160761D01*
X184033333Y-31122666D01*
X183995238Y-31103619D01*
X183938095Y-31103619D01*
X183900000Y-31084571D01*
X183880952Y-31046476D01*
X183880952Y-31027428D01*
X183900000Y-30989333D01*
X183938095Y-30970285D01*
X183995238Y-30970285D01*
X184033333Y-30989333D01*
X184242857Y-31217904D02*
X184242857Y-31236952D01*
X184223809Y-31275047D01*
X184204761Y-31294095D01*
X178319047Y-31861904D02*
X178280952Y-31880952D01*
X178204761Y-31880952D01*
X178166666Y-31861904D01*
X178147619Y-31823809D01*
X178147619Y-31671428D01*
X178166666Y-31633333D01*
X178204761Y-31614285D01*
X178280952Y-31614285D01*
X178319047Y-31633333D01*
X178338095Y-31671428D01*
X178338095Y-31709523D01*
X178147619Y-31747619D01*
X178509523Y-31880952D02*
X178509523Y-31614285D01*
X178509523Y-31480952D02*
X178490476Y-31500000D01*
X178509523Y-31519047D01*
X178528571Y-31500000D01*
X178509523Y-31480952D01*
X178509523Y-31519047D01*
X178642857Y-31614285D02*
X178795238Y-31614285D01*
X178700000Y-31480952D02*
X178700000Y-31823809D01*
X178719047Y-31861904D01*
X178757142Y-31880952D01*
X178795238Y-31880952D01*
X178928571Y-31880952D02*
X178928571Y-31480952D01*
X179100000Y-31880952D02*
X179100000Y-31671428D01*
X179080952Y-31633333D01*
X179042857Y-31614285D01*
X178985714Y-31614285D01*
X178947619Y-31633333D01*
X178928571Y-31652380D01*
X179442857Y-31861904D02*
X179404761Y-31880952D01*
X179328571Y-31880952D01*
X179290476Y-31861904D01*
X179271428Y-31823809D01*
X179271428Y-31671428D01*
X179290476Y-31633333D01*
X179328571Y-31614285D01*
X179404761Y-31614285D01*
X179442857Y-31633333D01*
X179461904Y-31671428D01*
X179461904Y-31709523D01*
X179271428Y-31747619D01*
X179633333Y-31880952D02*
X179633333Y-31614285D01*
X179633333Y-31690476D02*
X179652380Y-31652380D01*
X179671428Y-31633333D01*
X179709523Y-31614285D01*
X179747619Y-31614285D01*
X180128571Y-31614285D02*
X180280952Y-31614285D01*
X180185714Y-31480952D02*
X180185714Y-31823809D01*
X180204761Y-31861904D01*
X180242857Y-31880952D01*
X180280952Y-31880952D01*
X180414285Y-31880952D02*
X180414285Y-31480952D01*
X180585714Y-31880952D02*
X180585714Y-31671428D01*
X180566666Y-31633333D01*
X180528571Y-31614285D01*
X180471428Y-31614285D01*
X180433333Y-31633333D01*
X180414285Y-31652380D01*
X180776190Y-31880952D02*
X180776190Y-31614285D01*
X180776190Y-31480952D02*
X180757142Y-31500000D01*
X180776190Y-31519047D01*
X180795238Y-31500000D01*
X180776190Y-31480952D01*
X180776190Y-31519047D01*
X180947619Y-31861904D02*
X180985714Y-31880952D01*
X181061904Y-31880952D01*
X181100000Y-31861904D01*
X181119047Y-31823809D01*
X181119047Y-31804761D01*
X181100000Y-31766666D01*
X181061904Y-31747619D01*
X181004761Y-31747619D01*
X180966666Y-31728571D01*
X180947619Y-31690476D01*
X180947619Y-31671428D01*
X180966666Y-31633333D01*
X181004761Y-31614285D01*
X181061904Y-31614285D01*
X181100000Y-31633333D01*
X181595238Y-31880952D02*
X181595238Y-31614285D01*
X181595238Y-31480952D02*
X181576190Y-31500000D01*
X181595238Y-31519047D01*
X181614285Y-31500000D01*
X181595238Y-31480952D01*
X181595238Y-31519047D01*
X181766666Y-31861904D02*
X181804761Y-31880952D01*
X181880952Y-31880952D01*
X181919047Y-31861904D01*
X181938095Y-31823809D01*
X181938095Y-31804761D01*
X181919047Y-31766666D01*
X181880952Y-31747619D01*
X181823809Y-31747619D01*
X181785714Y-31728571D01*
X181766666Y-31690476D01*
X181766666Y-31671428D01*
X181785714Y-31633333D01*
X181823809Y-31614285D01*
X181880952Y-31614285D01*
X181919047Y-31633333D01*
X182109523Y-31614285D02*
X182109523Y-31880952D01*
X182109523Y-31652380D02*
X182128571Y-31633333D01*
X182166666Y-31614285D01*
X182223809Y-31614285D01*
X182261904Y-31633333D01*
X182280952Y-31671428D01*
X182280952Y-31880952D01*
X182490476Y-31480952D02*
X182452380Y-31557142D01*
X182604761Y-31614285D02*
X182757142Y-31614285D01*
X182661904Y-31480952D02*
X182661904Y-31823809D01*
X182680952Y-31861904D01*
X182719047Y-31880952D01*
X182757142Y-31880952D01*
X183366666Y-31880952D02*
X183366666Y-31480952D01*
X183366666Y-31861904D02*
X183328571Y-31880952D01*
X183252380Y-31880952D01*
X183214285Y-31861904D01*
X183195238Y-31842857D01*
X183176190Y-31804761D01*
X183176190Y-31690476D01*
X183195238Y-31652380D01*
X183214285Y-31633333D01*
X183252380Y-31614285D01*
X183328571Y-31614285D01*
X183366666Y-31633333D01*
X183614285Y-31880952D02*
X183576190Y-31861904D01*
X183557142Y-31842857D01*
X183538095Y-31804761D01*
X183538095Y-31690476D01*
X183557142Y-31652380D01*
X183576190Y-31633333D01*
X183614285Y-31614285D01*
X183671428Y-31614285D01*
X183709523Y-31633333D01*
X183728571Y-31652380D01*
X183747619Y-31690476D01*
X183747619Y-31804761D01*
X183728571Y-31842857D01*
X183709523Y-31861904D01*
X183671428Y-31880952D01*
X183614285Y-31880952D01*
X183919047Y-31614285D02*
X183919047Y-31880952D01*
X183919047Y-31652380D02*
X183938095Y-31633333D01*
X183976190Y-31614285D01*
X184033333Y-31614285D01*
X184071428Y-31633333D01*
X184090476Y-31671428D01*
X184090476Y-31880952D01*
X184433333Y-31861904D02*
X184395238Y-31880952D01*
X184319047Y-31880952D01*
X184280952Y-31861904D01*
X184261904Y-31823809D01*
X184261904Y-31671428D01*
X184280952Y-31633333D01*
X184319047Y-31614285D01*
X184395238Y-31614285D01*
X184433333Y-31633333D01*
X184452380Y-31671428D01*
X184452380Y-31709523D01*
X184261904Y-31747619D01*
X177842857Y-32258285D02*
X177938095Y-32524952D01*
X178033333Y-32258285D02*
X177938095Y-32524952D01*
X177900000Y-32620190D01*
X177880952Y-32639238D01*
X177842857Y-32658285D01*
X178338095Y-32505904D02*
X178300000Y-32524952D01*
X178223809Y-32524952D01*
X178185714Y-32505904D01*
X178166666Y-32467809D01*
X178166666Y-32315428D01*
X178185714Y-32277333D01*
X178223809Y-32258285D01*
X178300000Y-32258285D01*
X178338095Y-32277333D01*
X178357142Y-32315428D01*
X178357142Y-32353523D01*
X178166666Y-32391619D01*
X178471428Y-32258285D02*
X178623809Y-32258285D01*
X178528571Y-32124952D02*
X178528571Y-32467809D01*
X178547619Y-32505904D01*
X178585714Y-32524952D01*
X178623809Y-32524952D01*
X178776190Y-32505904D02*
X178776190Y-32524952D01*
X178757142Y-32563047D01*
X178738095Y-32582095D01*
X179309523Y-32524952D02*
X179271428Y-32505904D01*
X179252380Y-32486857D01*
X179233333Y-32448761D01*
X179233333Y-32334476D01*
X179252380Y-32296380D01*
X179271428Y-32277333D01*
X179309523Y-32258285D01*
X179366666Y-32258285D01*
X179404761Y-32277333D01*
X179423809Y-32296380D01*
X179442857Y-32334476D01*
X179442857Y-32448761D01*
X179423809Y-32486857D01*
X179404761Y-32505904D01*
X179366666Y-32524952D01*
X179309523Y-32524952D01*
X179614285Y-32524952D02*
X179614285Y-32258285D01*
X179614285Y-32334476D02*
X179633333Y-32296380D01*
X179652380Y-32277333D01*
X179690476Y-32258285D01*
X179728571Y-32258285D01*
X180128571Y-32258285D02*
X180223809Y-32524952D01*
X180319047Y-32258285D02*
X180223809Y-32524952D01*
X180185714Y-32620190D01*
X180166666Y-32639238D01*
X180128571Y-32658285D01*
X180528571Y-32524952D02*
X180490476Y-32505904D01*
X180471428Y-32486857D01*
X180452380Y-32448761D01*
X180452380Y-32334476D01*
X180471428Y-32296380D01*
X180490476Y-32277333D01*
X180528571Y-32258285D01*
X180585714Y-32258285D01*
X180623809Y-32277333D01*
X180642857Y-32296380D01*
X180661904Y-32334476D01*
X180661904Y-32448761D01*
X180642857Y-32486857D01*
X180623809Y-32505904D01*
X180585714Y-32524952D01*
X180528571Y-32524952D01*
X181004761Y-32258285D02*
X181004761Y-32524952D01*
X180833333Y-32258285D02*
X180833333Y-32467809D01*
X180852380Y-32505904D01*
X180890476Y-32524952D01*
X180947619Y-32524952D01*
X180985714Y-32505904D01*
X181004761Y-32486857D01*
X181480952Y-32505904D02*
X181519047Y-32524952D01*
X181595238Y-32524952D01*
X181633333Y-32505904D01*
X181652380Y-32467809D01*
X181652380Y-32448761D01*
X181633333Y-32410666D01*
X181595238Y-32391619D01*
X181538095Y-32391619D01*
X181500000Y-32372571D01*
X181480952Y-32334476D01*
X181480952Y-32315428D01*
X181500000Y-32277333D01*
X181538095Y-32258285D01*
X181595238Y-32258285D01*
X181633333Y-32277333D01*
X181995238Y-32505904D02*
X181957142Y-32524952D01*
X181880952Y-32524952D01*
X181842857Y-32505904D01*
X181823809Y-32486857D01*
X181804761Y-32448761D01*
X181804761Y-32334476D01*
X181823809Y-32296380D01*
X181842857Y-32277333D01*
X181880952Y-32258285D01*
X181957142Y-32258285D01*
X181995238Y-32277333D01*
X182166666Y-32524952D02*
X182166666Y-32258285D01*
X182166666Y-32334476D02*
X182185714Y-32296380D01*
X182204761Y-32277333D01*
X182242857Y-32258285D01*
X182280952Y-32258285D01*
X182566666Y-32505904D02*
X182528571Y-32524952D01*
X182452380Y-32524952D01*
X182414285Y-32505904D01*
X182395238Y-32467809D01*
X182395238Y-32315428D01*
X182414285Y-32277333D01*
X182452380Y-32258285D01*
X182528571Y-32258285D01*
X182566666Y-32277333D01*
X182585714Y-32315428D01*
X182585714Y-32353523D01*
X182395238Y-32391619D01*
X182719047Y-32258285D02*
X182795238Y-32524952D01*
X182871428Y-32334476D01*
X182947619Y-32524952D01*
X183023809Y-32258285D01*
X183328571Y-32505904D02*
X183290476Y-32524952D01*
X183214285Y-32524952D01*
X183176190Y-32505904D01*
X183157142Y-32467809D01*
X183157142Y-32315428D01*
X183176190Y-32277333D01*
X183214285Y-32258285D01*
X183290476Y-32258285D01*
X183328571Y-32277333D01*
X183347619Y-32315428D01*
X183347619Y-32353523D01*
X183157142Y-32391619D01*
X183690476Y-32524952D02*
X183690476Y-32124952D01*
X183690476Y-32505904D02*
X183652380Y-32524952D01*
X183576190Y-32524952D01*
X183538095Y-32505904D01*
X183519047Y-32486857D01*
X183500000Y-32448761D01*
X183500000Y-32334476D01*
X183519047Y-32296380D01*
X183538095Y-32277333D01*
X183576190Y-32258285D01*
X183652380Y-32258285D01*
X183690476Y-32277333D01*
X184357142Y-32258285D02*
X184357142Y-32524952D01*
X184185714Y-32258285D02*
X184185714Y-32467809D01*
X184204761Y-32505904D01*
X184242857Y-32524952D01*
X184300000Y-32524952D01*
X184338095Y-32505904D01*
X184357142Y-32486857D01*
X184547619Y-32258285D02*
X184547619Y-32658285D01*
X184547619Y-32277333D02*
X184585714Y-32258285D01*
X184661904Y-32258285D01*
X184700000Y-32277333D01*
X184719047Y-32296380D01*
X184738095Y-32334476D01*
X184738095Y-32448761D01*
X184719047Y-32486857D01*
X184700000Y-32505904D01*
X184661904Y-32524952D01*
X184585714Y-32524952D01*
X184547619Y-32505904D01*
D12*
X169657142Y-35035714D02*
X169657142Y-35250000D01*
X169642857Y-35292857D01*
X169614285Y-35321428D01*
X169571428Y-35335714D01*
X169542857Y-35335714D01*
X169842857Y-35335714D02*
X169814285Y-35321428D01*
X169800000Y-35307142D01*
X169785714Y-35278571D01*
X169785714Y-35192857D01*
X169800000Y-35164285D01*
X169814285Y-35150000D01*
X169842857Y-35135714D01*
X169885714Y-35135714D01*
X169914285Y-35150000D01*
X169928571Y-35164285D01*
X169942857Y-35192857D01*
X169942857Y-35278571D01*
X169928571Y-35307142D01*
X169914285Y-35321428D01*
X169885714Y-35335714D01*
X169842857Y-35335714D01*
X170071428Y-35335714D02*
X170071428Y-35135714D01*
X170071428Y-35192857D02*
X170085714Y-35164285D01*
X170100000Y-35150000D01*
X170128571Y-35135714D01*
X170157142Y-35135714D01*
X170385714Y-35335714D02*
X170385714Y-35035714D01*
X170385714Y-35321428D02*
X170357142Y-35335714D01*
X170300000Y-35335714D01*
X170271428Y-35321428D01*
X170257142Y-35307142D01*
X170242857Y-35278571D01*
X170242857Y-35192857D01*
X170257142Y-35164285D01*
X170271428Y-35150000D01*
X170300000Y-35135714D01*
X170357142Y-35135714D01*
X170385714Y-35150000D01*
X170657142Y-35335714D02*
X170657142Y-35178571D01*
X170642857Y-35150000D01*
X170614285Y-35135714D01*
X170557142Y-35135714D01*
X170528571Y-35150000D01*
X170657142Y-35321428D02*
X170628571Y-35335714D01*
X170557142Y-35335714D01*
X170528571Y-35321428D01*
X170514285Y-35292857D01*
X170514285Y-35264285D01*
X170528571Y-35235714D01*
X170557142Y-35221428D01*
X170628571Y-35221428D01*
X170657142Y-35207142D01*
X170800000Y-35135714D02*
X170800000Y-35335714D01*
X170800000Y-35164285D02*
X170814285Y-35150000D01*
X170842857Y-35135714D01*
X170885714Y-35135714D01*
X170914285Y-35150000D01*
X170928571Y-35178571D01*
X170928571Y-35335714D01*
X171300000Y-35335714D02*
X171300000Y-35035714D01*
X171300000Y-35178571D02*
X171471428Y-35178571D01*
X171471428Y-35335714D02*
X171471428Y-35035714D01*
X171657142Y-35335714D02*
X171628571Y-35321428D01*
X171614285Y-35307142D01*
X171600000Y-35278571D01*
X171600000Y-35192857D01*
X171614285Y-35164285D01*
X171628571Y-35150000D01*
X171657142Y-35135714D01*
X171700000Y-35135714D01*
X171728571Y-35150000D01*
X171742857Y-35164285D01*
X171757142Y-35192857D01*
X171757142Y-35278571D01*
X171742857Y-35307142D01*
X171728571Y-35321428D01*
X171700000Y-35335714D01*
X171657142Y-35335714D01*
X171842857Y-35135714D02*
X171957142Y-35135714D01*
X171885714Y-35335714D02*
X171885714Y-35078571D01*
X171900000Y-35050000D01*
X171928571Y-35035714D01*
X171957142Y-35035714D01*
X172042857Y-35321428D02*
X172071428Y-35335714D01*
X172128571Y-35335714D01*
X172157142Y-35321428D01*
X172171428Y-35292857D01*
X172171428Y-35278571D01*
X172157142Y-35250000D01*
X172128571Y-35235714D01*
X172085714Y-35235714D01*
X172057142Y-35221428D01*
X172042857Y-35192857D01*
X172042857Y-35178571D01*
X172057142Y-35150000D01*
X172085714Y-35135714D01*
X172128571Y-35135714D01*
X172157142Y-35150000D01*
X172257142Y-35135714D02*
X172371428Y-35135714D01*
X172300000Y-35035714D02*
X172300000Y-35292857D01*
X172314285Y-35321428D01*
X172342857Y-35335714D01*
X172371428Y-35335714D01*
X172471428Y-35335714D02*
X172471428Y-35135714D01*
X172471428Y-35192857D02*
X172485714Y-35164285D01*
X172500000Y-35150000D01*
X172528571Y-35135714D01*
X172557142Y-35135714D01*
X172785714Y-35335714D02*
X172785714Y-35178571D01*
X172771428Y-35150000D01*
X172742857Y-35135714D01*
X172685714Y-35135714D01*
X172657142Y-35150000D01*
X172785714Y-35321428D02*
X172757142Y-35335714D01*
X172685714Y-35335714D01*
X172657142Y-35321428D01*
X172642857Y-35292857D01*
X172642857Y-35264285D01*
X172657142Y-35235714D01*
X172685714Y-35221428D01*
X172757142Y-35221428D01*
X172785714Y-35207142D01*
X172928571Y-35135714D02*
X172928571Y-35335714D01*
X172928571Y-35164285D02*
X172942857Y-35150000D01*
X172971428Y-35135714D01*
X173014285Y-35135714D01*
X173042857Y-35150000D01*
X173057142Y-35178571D01*
X173057142Y-35335714D01*
X173328571Y-35335714D02*
X173328571Y-35035714D01*
X173328571Y-35321428D02*
X173300000Y-35335714D01*
X173242857Y-35335714D01*
X173214285Y-35321428D01*
X173200000Y-35307142D01*
X173185714Y-35278571D01*
X173185714Y-35192857D01*
X173200000Y-35164285D01*
X173214285Y-35150000D01*
X173242857Y-35135714D01*
X173300000Y-35135714D01*
X173328571Y-35150000D01*
X173942857Y-35335714D02*
X173928571Y-35335714D01*
X173900000Y-35321428D01*
X173857142Y-35278571D01*
X173785714Y-35192857D01*
X173757142Y-35150000D01*
X173742857Y-35107142D01*
X173742857Y-35078571D01*
X173757142Y-35050000D01*
X173785714Y-35035714D01*
X173800000Y-35035714D01*
X173828571Y-35050000D01*
X173842857Y-35078571D01*
X173842857Y-35092857D01*
X173828571Y-35121428D01*
X173814285Y-35135714D01*
X173728571Y-35192857D01*
X173714285Y-35207142D01*
X173700000Y-35235714D01*
X173700000Y-35278571D01*
X173714285Y-35307142D01*
X173728571Y-35321428D01*
X173757142Y-35335714D01*
X173800000Y-35335714D01*
X173828571Y-35321428D01*
X173842857Y-35307142D01*
X173885714Y-35250000D01*
X173900000Y-35207142D01*
X173900000Y-35178571D01*
X174285714Y-35250000D02*
X174428571Y-35250000D01*
X174257142Y-35335714D02*
X174357142Y-35035714D01*
X174457142Y-35335714D01*
X174542857Y-35321428D02*
X174571428Y-35335714D01*
X174628571Y-35335714D01*
X174657142Y-35321428D01*
X174671428Y-35292857D01*
X174671428Y-35278571D01*
X174657142Y-35250000D01*
X174628571Y-35235714D01*
X174585714Y-35235714D01*
X174557142Y-35221428D01*
X174542857Y-35192857D01*
X174542857Y-35178571D01*
X174557142Y-35150000D01*
X174585714Y-35135714D01*
X174628571Y-35135714D01*
X174657142Y-35150000D01*
X174800000Y-35335714D02*
X174800000Y-35035714D01*
X174928571Y-35335714D02*
X174928571Y-35178571D01*
X174914285Y-35150000D01*
X174885714Y-35135714D01*
X174842857Y-35135714D01*
X174814285Y-35150000D01*
X174800000Y-35164285D01*
X175300000Y-35335714D02*
X175300000Y-35035714D01*
X175414285Y-35035714D01*
X175442857Y-35050000D01*
X175457142Y-35064285D01*
X175471428Y-35092857D01*
X175471428Y-35135714D01*
X175457142Y-35164285D01*
X175442857Y-35178571D01*
X175414285Y-35192857D01*
X175300000Y-35192857D01*
X175642857Y-35335714D02*
X175614285Y-35321428D01*
X175600000Y-35292857D01*
X175600000Y-35035714D01*
X175885714Y-35335714D02*
X175885714Y-35178571D01*
X175871428Y-35150000D01*
X175842857Y-35135714D01*
X175785714Y-35135714D01*
X175757142Y-35150000D01*
X175885714Y-35321428D02*
X175857142Y-35335714D01*
X175785714Y-35335714D01*
X175757142Y-35321428D01*
X175742857Y-35292857D01*
X175742857Y-35264285D01*
X175757142Y-35235714D01*
X175785714Y-35221428D01*
X175857142Y-35221428D01*
X175885714Y-35207142D01*
X176014285Y-35321428D02*
X176042857Y-35335714D01*
X176100000Y-35335714D01*
X176128571Y-35321428D01*
X176142857Y-35292857D01*
X176142857Y-35278571D01*
X176128571Y-35250000D01*
X176100000Y-35235714D01*
X176057142Y-35235714D01*
X176028571Y-35221428D01*
X176014285Y-35192857D01*
X176014285Y-35178571D01*
X176028571Y-35150000D01*
X176057142Y-35135714D01*
X176100000Y-35135714D01*
X176128571Y-35150000D01*
X176385714Y-35321428D02*
X176357142Y-35335714D01*
X176300000Y-35335714D01*
X176271428Y-35321428D01*
X176257142Y-35292857D01*
X176257142Y-35178571D01*
X176271428Y-35150000D01*
X176300000Y-35135714D01*
X176357142Y-35135714D01*
X176385714Y-35150000D01*
X176400000Y-35178571D01*
X176400000Y-35207142D01*
X176257142Y-35235714D01*
X176528571Y-35335714D02*
X176528571Y-35035714D01*
X176557142Y-35221428D02*
X176642857Y-35335714D01*
X176642857Y-35135714D02*
X176528571Y-35250000D01*
X162221428Y-35178571D02*
X162121428Y-35178571D01*
X162121428Y-35335714D02*
X162121428Y-35035714D01*
X162264285Y-35035714D01*
X162364285Y-35321428D02*
X162407142Y-35335714D01*
X162478571Y-35335714D01*
X162507142Y-35321428D01*
X162521428Y-35307142D01*
X162535714Y-35278571D01*
X162535714Y-35250000D01*
X162521428Y-35221428D01*
X162507142Y-35207142D01*
X162478571Y-35192857D01*
X162421428Y-35178571D01*
X162392857Y-35164285D01*
X162378571Y-35150000D01*
X162364285Y-35121428D01*
X162364285Y-35092857D01*
X162378571Y-35064285D01*
X162392857Y-35050000D01*
X162421428Y-35035714D01*
X162492857Y-35035714D01*
X162535714Y-35050000D01*
X162907142Y-35335714D02*
X162892857Y-35335714D01*
X162864285Y-35321428D01*
X162821428Y-35278571D01*
X162750000Y-35192857D01*
X162721428Y-35150000D01*
X162707142Y-35107142D01*
X162707142Y-35078571D01*
X162721428Y-35050000D01*
X162750000Y-35035714D01*
X162764285Y-35035714D01*
X162792857Y-35050000D01*
X162807142Y-35078571D01*
X162807142Y-35092857D01*
X162792857Y-35121428D01*
X162778571Y-35135714D01*
X162692857Y-35192857D01*
X162678571Y-35207142D01*
X162664285Y-35235714D01*
X162664285Y-35278571D01*
X162678571Y-35307142D01*
X162692857Y-35321428D01*
X162721428Y-35335714D01*
X162764285Y-35335714D01*
X162792857Y-35321428D01*
X162807142Y-35307142D01*
X162850000Y-35250000D01*
X162864285Y-35207142D01*
X162864285Y-35178571D01*
X163035714Y-35335714D02*
X163035714Y-35035714D01*
X163150000Y-35035714D01*
X163178571Y-35050000D01*
X163192857Y-35064285D01*
X163207142Y-35092857D01*
X163207142Y-35135714D01*
X163192857Y-35164285D01*
X163178571Y-35178571D01*
X163150000Y-35192857D01*
X163035714Y-35192857D01*
X163792857Y-35335714D02*
X163792857Y-35035714D01*
X163892857Y-35250000D01*
X163992857Y-35035714D01*
X163992857Y-35335714D01*
X164264285Y-35335714D02*
X164264285Y-35178571D01*
X164250000Y-35150000D01*
X164221428Y-35135714D01*
X164164285Y-35135714D01*
X164135714Y-35150000D01*
X164264285Y-35321428D02*
X164235714Y-35335714D01*
X164164285Y-35335714D01*
X164135714Y-35321428D01*
X164121428Y-35292857D01*
X164121428Y-35264285D01*
X164135714Y-35235714D01*
X164164285Y-35221428D01*
X164235714Y-35221428D01*
X164264285Y-35207142D01*
X164535714Y-35135714D02*
X164535714Y-35378571D01*
X164521428Y-35407142D01*
X164507142Y-35421428D01*
X164478571Y-35435714D01*
X164435714Y-35435714D01*
X164407142Y-35421428D01*
X164535714Y-35321428D02*
X164507142Y-35335714D01*
X164450000Y-35335714D01*
X164421428Y-35321428D01*
X164407142Y-35307142D01*
X164392857Y-35278571D01*
X164392857Y-35192857D01*
X164407142Y-35164285D01*
X164421428Y-35150000D01*
X164450000Y-35135714D01*
X164507142Y-35135714D01*
X164535714Y-35150000D01*
X164678571Y-35335714D02*
X164678571Y-35135714D01*
X164678571Y-35035714D02*
X164664285Y-35050000D01*
X164678571Y-35064285D01*
X164692857Y-35050000D01*
X164678571Y-35035714D01*
X164678571Y-35064285D01*
X164950000Y-35321428D02*
X164921428Y-35335714D01*
X164864285Y-35335714D01*
X164835714Y-35321428D01*
X164821428Y-35307142D01*
X164807142Y-35278571D01*
X164807142Y-35192857D01*
X164821428Y-35164285D01*
X164835714Y-35150000D01*
X164864285Y-35135714D01*
X164921428Y-35135714D01*
X164950000Y-35150000D01*
X165478571Y-35307142D02*
X165464285Y-35321428D01*
X165421428Y-35335714D01*
X165392857Y-35335714D01*
X165350000Y-35321428D01*
X165321428Y-35292857D01*
X165307142Y-35264285D01*
X165292857Y-35207142D01*
X165292857Y-35164285D01*
X165307142Y-35107142D01*
X165321428Y-35078571D01*
X165350000Y-35050000D01*
X165392857Y-35035714D01*
X165421428Y-35035714D01*
X165464285Y-35050000D01*
X165478571Y-35064285D01*
X165650000Y-35335714D02*
X165621428Y-35321428D01*
X165607142Y-35307142D01*
X165592857Y-35278571D01*
X165592857Y-35192857D01*
X165607142Y-35164285D01*
X165621428Y-35150000D01*
X165650000Y-35135714D01*
X165692857Y-35135714D01*
X165721428Y-35150000D01*
X165735714Y-35164285D01*
X165750000Y-35192857D01*
X165750000Y-35278571D01*
X165735714Y-35307142D01*
X165721428Y-35321428D01*
X165692857Y-35335714D01*
X165650000Y-35335714D01*
X166007142Y-35135714D02*
X166007142Y-35335714D01*
X165878571Y-35135714D02*
X165878571Y-35292857D01*
X165892857Y-35321428D01*
X165921428Y-35335714D01*
X165964285Y-35335714D01*
X165992857Y-35321428D01*
X166007142Y-35307142D01*
X166150000Y-35135714D02*
X166150000Y-35335714D01*
X166150000Y-35164285D02*
X166164285Y-35150000D01*
X166192857Y-35135714D01*
X166235714Y-35135714D01*
X166264285Y-35150000D01*
X166278571Y-35178571D01*
X166278571Y-35335714D01*
X166378571Y-35135714D02*
X166492857Y-35135714D01*
X166421428Y-35035714D02*
X166421428Y-35292857D01*
X166435714Y-35321428D01*
X166464285Y-35335714D01*
X166492857Y-35335714D01*
X166707142Y-35321428D02*
X166678571Y-35335714D01*
X166621428Y-35335714D01*
X166592857Y-35321428D01*
X166578571Y-35292857D01*
X166578571Y-35178571D01*
X166592857Y-35150000D01*
X166621428Y-35135714D01*
X166678571Y-35135714D01*
X166707142Y-35150000D01*
X166721428Y-35178571D01*
X166721428Y-35207142D01*
X166578571Y-35235714D01*
X166850000Y-35335714D02*
X166850000Y-35135714D01*
X166850000Y-35192857D02*
X166864285Y-35164285D01*
X166878571Y-35150000D01*
X166907142Y-35135714D01*
X166935714Y-35135714D01*
X167664285Y-35335714D02*
X167564285Y-35192857D01*
X167492857Y-35335714D02*
X167492857Y-35035714D01*
X167607142Y-35035714D01*
X167635714Y-35050000D01*
X167650000Y-35064285D01*
X167664285Y-35092857D01*
X167664285Y-35135714D01*
X167650000Y-35164285D01*
X167635714Y-35178571D01*
X167607142Y-35192857D01*
X167492857Y-35192857D01*
X167907142Y-35321428D02*
X167878571Y-35335714D01*
X167821428Y-35335714D01*
X167792857Y-35321428D01*
X167778571Y-35292857D01*
X167778571Y-35178571D01*
X167792857Y-35150000D01*
X167821428Y-35135714D01*
X167878571Y-35135714D01*
X167907142Y-35150000D01*
X167921428Y-35178571D01*
X167921428Y-35207142D01*
X167778571Y-35235714D01*
X168021428Y-35135714D02*
X168092857Y-35335714D01*
X168164285Y-35135714D01*
X168564285Y-35035714D02*
X168592857Y-35035714D01*
X168621428Y-35050000D01*
X168635714Y-35064285D01*
X168650000Y-35092857D01*
X168664285Y-35150000D01*
X168664285Y-35221428D01*
X168650000Y-35278571D01*
X168635714Y-35307142D01*
X168621428Y-35321428D01*
X168592857Y-35335714D01*
X168564285Y-35335714D01*
X168535714Y-35321428D01*
X168521428Y-35307142D01*
X168507142Y-35278571D01*
X168492857Y-35221428D01*
X168492857Y-35150000D01*
X168507142Y-35092857D01*
X168521428Y-35064285D01*
X168535714Y-35050000D01*
X168564285Y-35035714D01*
X168792857Y-35307142D02*
X168807142Y-35321428D01*
X168792857Y-35335714D01*
X168778571Y-35321428D01*
X168792857Y-35307142D01*
X168792857Y-35335714D01*
X168907142Y-35035714D02*
X169107142Y-35035714D01*
X168978571Y-35335714D01*
D13*
%TO.C,C7*%
X161083333Y-31807142D02*
X161035714Y-31854761D01*
X160892857Y-31902380D01*
X160797619Y-31902380D01*
X160654761Y-31854761D01*
X160559523Y-31759523D01*
X160511904Y-31664285D01*
X160464285Y-31473809D01*
X160464285Y-31330952D01*
X160511904Y-31140476D01*
X160559523Y-31045238D01*
X160654761Y-30950000D01*
X160797619Y-30902380D01*
X160892857Y-30902380D01*
X161035714Y-30950000D01*
X161083333Y-30997619D01*
X161416666Y-30902380D02*
X162083333Y-30902380D01*
X161654761Y-31902380D01*
%TO.C,U3*%
X181138095Y-22652380D02*
X181138095Y-23461904D01*
X181185714Y-23557142D01*
X181233333Y-23604761D01*
X181328571Y-23652380D01*
X181519047Y-23652380D01*
X181614285Y-23604761D01*
X181661904Y-23557142D01*
X181709523Y-23461904D01*
X181709523Y-22652380D01*
X182090476Y-22652380D02*
X182709523Y-22652380D01*
X182376190Y-23033333D01*
X182519047Y-23033333D01*
X182614285Y-23080952D01*
X182661904Y-23128571D01*
X182709523Y-23223809D01*
X182709523Y-23461904D01*
X182661904Y-23557142D01*
X182614285Y-23604761D01*
X182519047Y-23652380D01*
X182233333Y-23652380D01*
X182138095Y-23604761D01*
X182090476Y-23557142D01*
D14*
%TO.C,BT2*%
X186378214Y-38677142D02*
X186401071Y-38608571D01*
X186423928Y-38585714D01*
X186469642Y-38562857D01*
X186538214Y-38562857D01*
X186583928Y-38585714D01*
X186606785Y-38608571D01*
X186629642Y-38654285D01*
X186629642Y-38837142D01*
X186149642Y-38837142D01*
X186149642Y-38677142D01*
X186172500Y-38631428D01*
X186195357Y-38608571D01*
X186241071Y-38585714D01*
X186286785Y-38585714D01*
X186332500Y-38608571D01*
X186355357Y-38631428D01*
X186378214Y-38677142D01*
X186378214Y-38837142D01*
X186149642Y-38425714D02*
X186149642Y-38151428D01*
X186629642Y-38288571D02*
X186149642Y-38288571D01*
X186195357Y-38014285D02*
X186172500Y-37991428D01*
X186149642Y-37945714D01*
X186149642Y-37831428D01*
X186172500Y-37785714D01*
X186195357Y-37762857D01*
X186241071Y-37740000D01*
X186286785Y-37740000D01*
X186355357Y-37762857D01*
X186629642Y-38037142D01*
X186629642Y-37740000D01*
D13*
%TO.C,R7*%
X161033333Y-23252380D02*
X160700000Y-22776190D01*
X160461904Y-23252380D02*
X160461904Y-22252380D01*
X160842857Y-22252380D01*
X160938095Y-22300000D01*
X160985714Y-22347619D01*
X161033333Y-22442857D01*
X161033333Y-22585714D01*
X160985714Y-22680952D01*
X160938095Y-22728571D01*
X160842857Y-22776190D01*
X160461904Y-22776190D01*
X161366666Y-22252380D02*
X162033333Y-22252380D01*
X161604761Y-23252380D01*
%TO.C,C2*%
X165483333Y-29907142D02*
X165435714Y-29954761D01*
X165292857Y-30002380D01*
X165197619Y-30002380D01*
X165054761Y-29954761D01*
X164959523Y-29859523D01*
X164911904Y-29764285D01*
X164864285Y-29573809D01*
X164864285Y-29430952D01*
X164911904Y-29240476D01*
X164959523Y-29145238D01*
X165054761Y-29050000D01*
X165197619Y-29002380D01*
X165292857Y-29002380D01*
X165435714Y-29050000D01*
X165483333Y-29097619D01*
X165864285Y-29097619D02*
X165911904Y-29050000D01*
X166007142Y-29002380D01*
X166245238Y-29002380D01*
X166340476Y-29050000D01*
X166388095Y-29097619D01*
X166435714Y-29192857D01*
X166435714Y-29288095D01*
X166388095Y-29430952D01*
X165816666Y-30002380D01*
X166435714Y-30002380D01*
%TO.C,C9*%
X161033333Y-34057142D02*
X160985714Y-34104761D01*
X160842857Y-34152380D01*
X160747619Y-34152380D01*
X160604761Y-34104761D01*
X160509523Y-34009523D01*
X160461904Y-33914285D01*
X160414285Y-33723809D01*
X160414285Y-33580952D01*
X160461904Y-33390476D01*
X160509523Y-33295238D01*
X160604761Y-33200000D01*
X160747619Y-33152380D01*
X160842857Y-33152380D01*
X160985714Y-33200000D01*
X161033333Y-33247619D01*
X161509523Y-34152380D02*
X161700000Y-34152380D01*
X161795238Y-34104761D01*
X161842857Y-34057142D01*
X161938095Y-33914285D01*
X161985714Y-33723809D01*
X161985714Y-33342857D01*
X161938095Y-33247619D01*
X161890476Y-33200000D01*
X161795238Y-33152380D01*
X161604761Y-33152380D01*
X161509523Y-33200000D01*
X161461904Y-33247619D01*
X161414285Y-33342857D01*
X161414285Y-33580952D01*
X161461904Y-33676190D01*
X161509523Y-33723809D01*
X161604761Y-33771428D01*
X161795238Y-33771428D01*
X161890476Y-33723809D01*
X161938095Y-33676190D01*
X161985714Y-33580952D01*
%TO.C,R3*%
X169933333Y-29752380D02*
X169600000Y-29276190D01*
X169361904Y-29752380D02*
X169361904Y-28752380D01*
X169742857Y-28752380D01*
X169838095Y-28800000D01*
X169885714Y-28847619D01*
X169933333Y-28942857D01*
X169933333Y-29085714D01*
X169885714Y-29180952D01*
X169838095Y-29228571D01*
X169742857Y-29276190D01*
X169361904Y-29276190D01*
X170266666Y-28752380D02*
X170885714Y-28752380D01*
X170552380Y-29133333D01*
X170695238Y-29133333D01*
X170790476Y-29180952D01*
X170838095Y-29228571D01*
X170885714Y-29323809D01*
X170885714Y-29561904D01*
X170838095Y-29657142D01*
X170790476Y-29704761D01*
X170695238Y-29752380D01*
X170409523Y-29752380D01*
X170314285Y-29704761D01*
X170266666Y-29657142D01*
%TO.C,C8*%
X173657142Y-32766666D02*
X173704761Y-32814285D01*
X173752380Y-32957142D01*
X173752380Y-33052380D01*
X173704761Y-33195238D01*
X173609523Y-33290476D01*
X173514285Y-33338095D01*
X173323809Y-33385714D01*
X173180952Y-33385714D01*
X172990476Y-33338095D01*
X172895238Y-33290476D01*
X172800000Y-33195238D01*
X172752380Y-33052380D01*
X172752380Y-32957142D01*
X172800000Y-32814285D01*
X172847619Y-32766666D01*
X173180952Y-32195238D02*
X173133333Y-32290476D01*
X173085714Y-32338095D01*
X172990476Y-32385714D01*
X172942857Y-32385714D01*
X172847619Y-32338095D01*
X172800000Y-32290476D01*
X172752380Y-32195238D01*
X172752380Y-32004761D01*
X172800000Y-31909523D01*
X172847619Y-31861904D01*
X172942857Y-31814285D01*
X172990476Y-31814285D01*
X173085714Y-31861904D01*
X173133333Y-31909523D01*
X173180952Y-32004761D01*
X173180952Y-32195238D01*
X173228571Y-32290476D01*
X173276190Y-32338095D01*
X173371428Y-32385714D01*
X173561904Y-32385714D01*
X173657142Y-32338095D01*
X173704761Y-32290476D01*
X173752380Y-32195238D01*
X173752380Y-32004761D01*
X173704761Y-31909523D01*
X173657142Y-31861904D01*
X173561904Y-31814285D01*
X173371428Y-31814285D01*
X173276190Y-31861904D01*
X173228571Y-31909523D01*
X173180952Y-32004761D01*
%TO.C,J3*%
X160866666Y-38952380D02*
X160866666Y-39666666D01*
X160819047Y-39809523D01*
X160723809Y-39904761D01*
X160580952Y-39952380D01*
X160485714Y-39952380D01*
X161247619Y-38952380D02*
X161866666Y-38952380D01*
X161533333Y-39333333D01*
X161676190Y-39333333D01*
X161771428Y-39380952D01*
X161819047Y-39428571D01*
X161866666Y-39523809D01*
X161866666Y-39761904D01*
X161819047Y-39857142D01*
X161771428Y-39904761D01*
X161676190Y-39952380D01*
X161390476Y-39952380D01*
X161295238Y-39904761D01*
X161247619Y-39857142D01*
%TO.C,U4*%
X185061904Y-37047619D02*
X185061904Y-36238095D01*
X185014285Y-36142857D01*
X184966666Y-36095238D01*
X184871428Y-36047619D01*
X184680952Y-36047619D01*
X184585714Y-36095238D01*
X184538095Y-36142857D01*
X184490476Y-36238095D01*
X184490476Y-37047619D01*
X183585714Y-36714285D02*
X183585714Y-36047619D01*
X183823809Y-37095238D02*
X184061904Y-36380952D01*
X183442857Y-36380952D01*
%TO.C,C1*%
X176157142Y-32766666D02*
X176204761Y-32814285D01*
X176252380Y-32957142D01*
X176252380Y-33052380D01*
X176204761Y-33195238D01*
X176109523Y-33290476D01*
X176014285Y-33338095D01*
X175823809Y-33385714D01*
X175680952Y-33385714D01*
X175490476Y-33338095D01*
X175395238Y-33290476D01*
X175300000Y-33195238D01*
X175252380Y-33052380D01*
X175252380Y-32957142D01*
X175300000Y-32814285D01*
X175347619Y-32766666D01*
X176252380Y-31814285D02*
X176252380Y-32385714D01*
X176252380Y-32100000D02*
X175252380Y-32100000D01*
X175395238Y-32195238D01*
X175490476Y-32290476D01*
X175538095Y-32385714D01*
%TO.C,C4*%
X165533333Y-33657142D02*
X165485714Y-33704761D01*
X165342857Y-33752380D01*
X165247619Y-33752380D01*
X165104761Y-33704761D01*
X165009523Y-33609523D01*
X164961904Y-33514285D01*
X164914285Y-33323809D01*
X164914285Y-33180952D01*
X164961904Y-32990476D01*
X165009523Y-32895238D01*
X165104761Y-32800000D01*
X165247619Y-32752380D01*
X165342857Y-32752380D01*
X165485714Y-32800000D01*
X165533333Y-32847619D01*
X166390476Y-33085714D02*
X166390476Y-33752380D01*
X166152380Y-32704761D02*
X165914285Y-33419047D01*
X166533333Y-33419047D01*
%TO.C,C6*%
X170033333Y-33857142D02*
X169985714Y-33904761D01*
X169842857Y-33952380D01*
X169747619Y-33952380D01*
X169604761Y-33904761D01*
X169509523Y-33809523D01*
X169461904Y-33714285D01*
X169414285Y-33523809D01*
X169414285Y-33380952D01*
X169461904Y-33190476D01*
X169509523Y-33095238D01*
X169604761Y-33000000D01*
X169747619Y-32952380D01*
X169842857Y-32952380D01*
X169985714Y-33000000D01*
X170033333Y-33047619D01*
X170890476Y-32952380D02*
X170700000Y-32952380D01*
X170604761Y-33000000D01*
X170557142Y-33047619D01*
X170461904Y-33190476D01*
X170414285Y-33380952D01*
X170414285Y-33761904D01*
X170461904Y-33857142D01*
X170509523Y-33904761D01*
X170604761Y-33952380D01*
X170795238Y-33952380D01*
X170890476Y-33904761D01*
X170938095Y-33857142D01*
X170985714Y-33761904D01*
X170985714Y-33523809D01*
X170938095Y-33428571D01*
X170890476Y-33380952D01*
X170795238Y-33333333D01*
X170604761Y-33333333D01*
X170509523Y-33380952D01*
X170461904Y-33428571D01*
X170414285Y-33523809D01*
%TO.C,R2*%
X161033333Y-29852380D02*
X160700000Y-29376190D01*
X160461904Y-29852380D02*
X160461904Y-28852380D01*
X160842857Y-28852380D01*
X160938095Y-28900000D01*
X160985714Y-28947619D01*
X161033333Y-29042857D01*
X161033333Y-29185714D01*
X160985714Y-29280952D01*
X160938095Y-29328571D01*
X160842857Y-29376190D01*
X160461904Y-29376190D01*
X161414285Y-28947619D02*
X161461904Y-28900000D01*
X161557142Y-28852380D01*
X161795238Y-28852380D01*
X161890476Y-28900000D01*
X161938095Y-28947619D01*
X161985714Y-29042857D01*
X161985714Y-29138095D01*
X161938095Y-29280952D01*
X161366666Y-29852380D01*
X161985714Y-29852380D01*
%TO.C,R4*%
X165533333Y-25252380D02*
X165200000Y-24776190D01*
X164961904Y-25252380D02*
X164961904Y-24252380D01*
X165342857Y-24252380D01*
X165438095Y-24300000D01*
X165485714Y-24347619D01*
X165533333Y-24442857D01*
X165533333Y-24585714D01*
X165485714Y-24680952D01*
X165438095Y-24728571D01*
X165342857Y-24776190D01*
X164961904Y-24776190D01*
X166390476Y-24585714D02*
X166390476Y-25252380D01*
X166152380Y-24204761D02*
X165914285Y-24919047D01*
X166533333Y-24919047D01*
%TO.C,C5*%
X174533333Y-29307142D02*
X174485714Y-29354761D01*
X174342857Y-29402380D01*
X174247619Y-29402380D01*
X174104761Y-29354761D01*
X174009523Y-29259523D01*
X173961904Y-29164285D01*
X173914285Y-28973809D01*
X173914285Y-28830952D01*
X173961904Y-28640476D01*
X174009523Y-28545238D01*
X174104761Y-28450000D01*
X174247619Y-28402380D01*
X174342857Y-28402380D01*
X174485714Y-28450000D01*
X174533333Y-28497619D01*
X175438095Y-28402380D02*
X174961904Y-28402380D01*
X174914285Y-28878571D01*
X174961904Y-28830952D01*
X175057142Y-28783333D01*
X175295238Y-28783333D01*
X175390476Y-28830952D01*
X175438095Y-28878571D01*
X175485714Y-28973809D01*
X175485714Y-29211904D01*
X175438095Y-29307142D01*
X175390476Y-29354761D01*
X175295238Y-29402380D01*
X175057142Y-29402380D01*
X174961904Y-29354761D01*
X174914285Y-29307142D01*
%TO.C,U2*%
X181238095Y-25952380D02*
X181238095Y-26761904D01*
X181285714Y-26857142D01*
X181333333Y-26904761D01*
X181428571Y-26952380D01*
X181619047Y-26952380D01*
X181714285Y-26904761D01*
X181761904Y-26857142D01*
X181809523Y-26761904D01*
X181809523Y-25952380D01*
X182238095Y-26047619D02*
X182285714Y-26000000D01*
X182380952Y-25952380D01*
X182619047Y-25952380D01*
X182714285Y-26000000D01*
X182761904Y-26047619D01*
X182809523Y-26142857D01*
X182809523Y-26238095D01*
X182761904Y-26380952D01*
X182190476Y-26952380D01*
X182809523Y-26952380D01*
X185250000Y-25702380D02*
X185250000Y-25940476D01*
X185011904Y-25845238D02*
X185250000Y-25940476D01*
X185488095Y-25845238D01*
X185107142Y-26130952D02*
X185250000Y-25940476D01*
X185392857Y-26130952D01*
X185250000Y-25702380D02*
X185250000Y-25940476D01*
X185011904Y-25845238D02*
X185250000Y-25940476D01*
X185488095Y-25845238D01*
X185107142Y-26130952D02*
X185250000Y-25940476D01*
X185392857Y-26130952D01*
%TO.C,C3*%
X165533333Y-27557142D02*
X165485714Y-27604761D01*
X165342857Y-27652380D01*
X165247619Y-27652380D01*
X165104761Y-27604761D01*
X165009523Y-27509523D01*
X164961904Y-27414285D01*
X164914285Y-27223809D01*
X164914285Y-27080952D01*
X164961904Y-26890476D01*
X165009523Y-26795238D01*
X165104761Y-26700000D01*
X165247619Y-26652380D01*
X165342857Y-26652380D01*
X165485714Y-26700000D01*
X165533333Y-26747619D01*
X165866666Y-26652380D02*
X166485714Y-26652380D01*
X166152380Y-27033333D01*
X166295238Y-27033333D01*
X166390476Y-27080952D01*
X166438095Y-27128571D01*
X166485714Y-27223809D01*
X166485714Y-27461904D01*
X166438095Y-27557142D01*
X166390476Y-27604761D01*
X166295238Y-27652380D01*
X166009523Y-27652380D01*
X165914285Y-27604761D01*
X165866666Y-27557142D01*
%TO.C,R8*%
X165533333Y-22952380D02*
X165200000Y-22476190D01*
X164961904Y-22952380D02*
X164961904Y-21952380D01*
X165342857Y-21952380D01*
X165438095Y-22000000D01*
X165485714Y-22047619D01*
X165533333Y-22142857D01*
X165533333Y-22285714D01*
X165485714Y-22380952D01*
X165438095Y-22428571D01*
X165342857Y-22476190D01*
X164961904Y-22476190D01*
X166104761Y-22380952D02*
X166009523Y-22333333D01*
X165961904Y-22285714D01*
X165914285Y-22190476D01*
X165914285Y-22142857D01*
X165961904Y-22047619D01*
X166009523Y-22000000D01*
X166104761Y-21952380D01*
X166295238Y-21952380D01*
X166390476Y-22000000D01*
X166438095Y-22047619D01*
X166485714Y-22142857D01*
X166485714Y-22190476D01*
X166438095Y-22285714D01*
X166390476Y-22333333D01*
X166295238Y-22380952D01*
X166104761Y-22380952D01*
X166009523Y-22428571D01*
X165961904Y-22476190D01*
X165914285Y-22571428D01*
X165914285Y-22761904D01*
X165961904Y-22857142D01*
X166009523Y-22904761D01*
X166104761Y-22952380D01*
X166295238Y-22952380D01*
X166390476Y-22904761D01*
X166438095Y-22857142D01*
X166485714Y-22761904D01*
X166485714Y-22571428D01*
X166438095Y-22476190D01*
X166390476Y-22428571D01*
X166295238Y-22380952D01*
%TO.C,R1*%
X170033333Y-31852380D02*
X169700000Y-31376190D01*
X169461904Y-31852380D02*
X169461904Y-30852380D01*
X169842857Y-30852380D01*
X169938095Y-30900000D01*
X169985714Y-30947619D01*
X170033333Y-31042857D01*
X170033333Y-31185714D01*
X169985714Y-31280952D01*
X169938095Y-31328571D01*
X169842857Y-31376190D01*
X169461904Y-31376190D01*
X170985714Y-31852380D02*
X170414285Y-31852380D01*
X170700000Y-31852380D02*
X170700000Y-30852380D01*
X170604761Y-30995238D01*
X170509523Y-31090476D01*
X170414285Y-31138095D01*
%TO.C,J1*%
X172666666Y-23152380D02*
X172666666Y-23866666D01*
X172619047Y-24009523D01*
X172523809Y-24104761D01*
X172380952Y-24152380D01*
X172285714Y-24152380D01*
X173666666Y-24152380D02*
X173095238Y-24152380D01*
X173380952Y-24152380D02*
X173380952Y-23152380D01*
X173285714Y-23295238D01*
X173190476Y-23390476D01*
X173095238Y-23438095D01*
X167390394Y-18380880D02*
X167390394Y-19190404D01*
X167438013Y-19285642D01*
X167485632Y-19333261D01*
X167580870Y-19380880D01*
X167771346Y-19380880D01*
X167866584Y-19333261D01*
X167914203Y-19285642D01*
X167961822Y-19190404D01*
X167961822Y-18380880D01*
X168390394Y-19333261D02*
X168533251Y-19380880D01*
X168771346Y-19380880D01*
X168866584Y-19333261D01*
X168914203Y-19285642D01*
X168961822Y-19190404D01*
X168961822Y-19095166D01*
X168914203Y-18999928D01*
X168866584Y-18952309D01*
X168771346Y-18904690D01*
X168580870Y-18857071D01*
X168485632Y-18809452D01*
X168438013Y-18761833D01*
X168390394Y-18666595D01*
X168390394Y-18571357D01*
X168438013Y-18476119D01*
X168485632Y-18428500D01*
X168580870Y-18380880D01*
X168818965Y-18380880D01*
X168961822Y-18428500D01*
X169723727Y-18857071D02*
X169866584Y-18904690D01*
X169914203Y-18952309D01*
X169961822Y-19047547D01*
X169961822Y-19190404D01*
X169914203Y-19285642D01*
X169866584Y-19333261D01*
X169771346Y-19380880D01*
X169390394Y-19380880D01*
X169390394Y-18380880D01*
X169723727Y-18380880D01*
X169818965Y-18428500D01*
X169866584Y-18476119D01*
X169914203Y-18571357D01*
X169914203Y-18666595D01*
X169866584Y-18761833D01*
X169818965Y-18809452D01*
X169723727Y-18857071D01*
X169390394Y-18857071D01*
X170818965Y-18714214D02*
X170818965Y-19380880D01*
X170580870Y-18333261D02*
X170342775Y-19047547D01*
X170961822Y-19047547D01*
X171866584Y-19380880D02*
X171295156Y-19380880D01*
X171580870Y-19380880D02*
X171580870Y-18380880D01*
X171485632Y-18523738D01*
X171390394Y-18618976D01*
X171295156Y-18666595D01*
X172485632Y-18380880D02*
X172580870Y-18380880D01*
X172676108Y-18428500D01*
X172723727Y-18476119D01*
X172771346Y-18571357D01*
X172818965Y-18761833D01*
X172818965Y-18999928D01*
X172771346Y-19190404D01*
X172723727Y-19285642D01*
X172676108Y-19333261D01*
X172580870Y-19380880D01*
X172485632Y-19380880D01*
X172390394Y-19333261D01*
X172342775Y-19285642D01*
X172295156Y-19190404D01*
X172247537Y-18999928D01*
X172247537Y-18761833D01*
X172295156Y-18571357D01*
X172342775Y-18476119D01*
X172390394Y-18428500D01*
X172485632Y-18380880D01*
X173723727Y-18380880D02*
X173247537Y-18380880D01*
X173199918Y-18857071D01*
X173247537Y-18809452D01*
X173342775Y-18761833D01*
X173580870Y-18761833D01*
X173676108Y-18809452D01*
X173723727Y-18857071D01*
X173771346Y-18952309D01*
X173771346Y-19190404D01*
X173723727Y-19285642D01*
X173676108Y-19333261D01*
X173580870Y-19380880D01*
X173342775Y-19380880D01*
X173247537Y-19333261D01*
X173199918Y-19285642D01*
X174199918Y-18999928D02*
X174961822Y-18999928D01*
X175961822Y-18428500D02*
X175866584Y-18380880D01*
X175723727Y-18380880D01*
X175580870Y-18428500D01*
X175485632Y-18523738D01*
X175438013Y-18618976D01*
X175390394Y-18809452D01*
X175390394Y-18952309D01*
X175438013Y-19142785D01*
X175485632Y-19238023D01*
X175580870Y-19333261D01*
X175723727Y-19380880D01*
X175818965Y-19380880D01*
X175961822Y-19333261D01*
X176009441Y-19285642D01*
X176009441Y-18952309D01*
X175818965Y-18952309D01*
X176771346Y-18857071D02*
X176438013Y-18857071D01*
X176438013Y-19380880D02*
X176438013Y-18380880D01*
X176914203Y-18380880D01*
X177295156Y-18999928D02*
X178057060Y-18999928D01*
X178485632Y-19095166D02*
X178961822Y-19095166D01*
X178390394Y-19380880D02*
X178723727Y-18380880D01*
X179057060Y-19380880D01*
%TO.C,U1*%
X176738095Y-30252380D02*
X176738095Y-31061904D01*
X176785714Y-31157142D01*
X176833333Y-31204761D01*
X176928571Y-31252380D01*
X177119047Y-31252380D01*
X177214285Y-31204761D01*
X177261904Y-31157142D01*
X177309523Y-31061904D01*
X177309523Y-30252380D01*
X178309523Y-31252380D02*
X177738095Y-31252380D01*
X178023809Y-31252380D02*
X178023809Y-30252380D01*
X177928571Y-30395238D01*
X177833333Y-30490476D01*
X177738095Y-30538095D01*
%TO.C,C10*%
X166057142Y-32042857D02*
X166104761Y-32090476D01*
X166152380Y-32233333D01*
X166152380Y-32328571D01*
X166104761Y-32471428D01*
X166009523Y-32566666D01*
X165914285Y-32614285D01*
X165723809Y-32661904D01*
X165580952Y-32661904D01*
X165390476Y-32614285D01*
X165295238Y-32566666D01*
X165200000Y-32471428D01*
X165152380Y-32328571D01*
X165152380Y-32233333D01*
X165200000Y-32090476D01*
X165247619Y-32042857D01*
X166152380Y-31090476D02*
X166152380Y-31661904D01*
X166152380Y-31376190D02*
X165152380Y-31376190D01*
X165295238Y-31471428D01*
X165390476Y-31566666D01*
X165438095Y-31661904D01*
X165152380Y-30471428D02*
X165152380Y-30376190D01*
X165200000Y-30280952D01*
X165247619Y-30233333D01*
X165342857Y-30185714D01*
X165533333Y-30138095D01*
X165771428Y-30138095D01*
X165961904Y-30185714D01*
X166057142Y-30233333D01*
X166104761Y-30280952D01*
X166152380Y-30376190D01*
X166152380Y-30471428D01*
X166104761Y-30566666D01*
X166057142Y-30614285D01*
X165961904Y-30661904D01*
X165771428Y-30709523D01*
X165533333Y-30709523D01*
X165342857Y-30661904D01*
X165247619Y-30614285D01*
X165200000Y-30566666D01*
X165152380Y-30471428D01*
D14*
%TO.C,C7*%
X161911252Y-32510000D02*
X160488748Y-32510000D01*
X161911252Y-30690000D02*
X160488748Y-30690000D01*
%TO.C,U3*%
X180337500Y-24660000D02*
X179537500Y-24660000D01*
X180337500Y-21540000D02*
X178537500Y-21540000D01*
X180337500Y-24660000D02*
X181137500Y-24660000D01*
X180337500Y-21540000D02*
X181137500Y-21540000D01*
D15*
%TO.C,BT2*%
X190950000Y-43150000D02*
X183350000Y-43150000D01*
X190950000Y-37250000D02*
X190950000Y-43150000D01*
X183350000Y-43150000D02*
X183350000Y-37250000D01*
X183350000Y-37250000D02*
X190950000Y-37250000D01*
D16*
X183800000Y-41300000D02*
G75*
G03*
X183800000Y-41300000I-100000J0D01*
G01*
D14*
%TO.C,R7*%
X160472936Y-23510000D02*
X161927064Y-23510000D01*
X160472936Y-21690000D02*
X161927064Y-21690000D01*
%TO.C,C2*%
X166411252Y-28290000D02*
X164988748Y-28290000D01*
X166411252Y-30110000D02*
X164988748Y-30110000D01*
%TO.C,C9*%
X161911252Y-34710000D02*
X160488748Y-34710000D01*
X161911252Y-32890000D02*
X160488748Y-32890000D01*
%TO.C,R3*%
X170927064Y-30110000D02*
X169472936Y-30110000D01*
X170927064Y-28290000D02*
X169472936Y-28290000D01*
%TO.C,C8*%
X174510000Y-31888748D02*
X174510000Y-33311252D01*
X172690000Y-31888748D02*
X172690000Y-33311252D01*
%TO.C,C1*%
X174890000Y-33311252D02*
X174890000Y-31888748D01*
X176710000Y-33311252D02*
X176710000Y-31888748D01*
%TO.C,C4*%
X166411252Y-32690000D02*
X164988748Y-32690000D01*
X166411252Y-34510000D02*
X164988748Y-34510000D01*
%TO.C,C6*%
X170911252Y-32690000D02*
X169488748Y-32690000D01*
X170911252Y-34510000D02*
X169488748Y-34510000D01*
%TO.C,R2*%
X160472936Y-30310000D02*
X161927064Y-30310000D01*
X160472936Y-28490000D02*
X161927064Y-28490000D01*
%TO.C,R4*%
X164972936Y-25710000D02*
X166427064Y-25710000D01*
X164972936Y-23890000D02*
X166427064Y-23890000D01*
%TO.C,C5*%
X175411252Y-30110000D02*
X173988748Y-30110000D01*
X175411252Y-28290000D02*
X173988748Y-28290000D01*
D17*
%TO.C,U2*%
X179271300Y-28076400D02*
X181328700Y-28076400D01*
X181328700Y-24723600D02*
X179271300Y-24723600D01*
X181328700Y-26763261D02*
X181328700Y-26036739D01*
D14*
%TO.C,C3*%
X166411252Y-27910000D02*
X164988748Y-27910000D01*
X166411252Y-26090000D02*
X164988748Y-26090000D01*
%TO.C,R8*%
X164972936Y-23510000D02*
X166427064Y-23510000D01*
X164972936Y-21690000D02*
X166427064Y-21690000D01*
%TO.C,R1*%
X170927064Y-32310000D02*
X169472936Y-32310000D01*
X170927064Y-30490000D02*
X169472936Y-30490000D01*
D17*
%TO.C,J1*%
X168085100Y-23413174D02*
X168085100Y-25476026D01*
X177914900Y-25476026D02*
X177914900Y-23413174D01*
X168085100Y-19712200D02*
X168085100Y-21448426D01*
X177914900Y-21448426D02*
X177914900Y-19712200D01*
X177914900Y-19712200D02*
X168085100Y-19712200D01*
X174381000Y-25400000D02*
G75*
G03*
X174381000Y-25400000I-381000J0D01*
G01*
D14*
%TO.C,U1*%
X176865000Y-31800000D02*
X176865000Y-35250000D01*
X185735000Y-31800000D02*
X185735000Y-33750000D01*
X176865000Y-31800000D02*
X176865000Y-29850000D01*
X185735000Y-31800000D02*
X185735000Y-29850000D01*
%TO.C,C10*%
X164988748Y-32310000D02*
X166411252Y-32310000D01*
X164988748Y-30490000D02*
X166411252Y-30490000D01*
D18*
%TO.C,SW2*%
X177700000Y-34100000D02*
G75*
G03*
X177700000Y-34100000I0J0D01*
G01*
%TD*%
M02*
