M48
; DRILL file {KiCad (6.0.7)} date Tue Sep 19 20:50:45 2023
; FORMAT={-:-/ absolute / inch / decimal}
; #@! TF.CreationDate,2023-09-19T20:50:45-05:00
; #@! TF.GenerationSoftware,Kicad,Pcbnew,(6.0.7)
; #@! TF.FileFunction,Plated,1,4,PTH
FMAT,2
INCH
; #@! TA.AperFunction,Plated,PTH,ViaDrill
T1C0.0059
; #@! TA.AperFunction,Plated,PTH,ViaDrill
T2C0.0157
; #@! TA.AperFunction,Plated,PTH,ComponentDrill
T3C0.0260
; #@! TA.AperFunction,Plated,PTH,ComponentDrill
T4C0.0315
; #@! TA.AperFunction,Plated,PTH,ComponentDrill
T5C0.0394
%
G90
G05
T1
X6.2874Y-0.9449
X6.3228Y-1.1181
X6.3228Y-1.3307
X6.3228Y-1.4724
X6.3307Y-1.2441
X6.3465Y-0.878
X6.437Y-1.3858
X6.4646Y-1.371
X6.497Y-1.2819
X6.4981Y-1.1922
X6.5078Y-0.9606
X6.5334Y-0.9961
X6.5354Y-1.1693
X6.5394Y-1.1929
X6.5394Y-1.3031
X6.5827Y-1.3858
X6.6181Y-1.1024
X6.6457Y-1.3681
X6.6811Y-1.1969
X6.7008Y-1.1181
X6.7126Y-1.1339
X6.7205Y-0.9921
X6.7234Y-1.2205
X6.7323Y-1.3681
X6.7441Y-0.9606
X6.7835Y-1.1063
X6.7835Y-1.2008
X6.7874Y-1.3681
X6.815Y-1.1978
X6.8307Y-1.2608
X6.8583Y-0.9783
X6.8622Y-1.139
X6.874Y-0.9606
X6.8757Y-1.1961
X6.878Y-1.4094
X6.8976Y-1.0984
X6.8976Y-1.2756
X6.9094Y-1.3701
X6.9134Y-1.0
X6.937Y-1.3956
X6.9606Y-1.4567
X6.9882Y-1.2579
X6.999Y-1.3998
X7.0079Y-0.9882
X7.0124Y-1.3819
X7.0315Y-1.2165
X7.0433Y-1.4803
X7.0551Y-0.9705
X7.0551Y-1.0945
X7.0551Y-1.2165
X7.063Y-1.1752
X7.0768Y-1.2776
X7.0906Y-1.2165
X7.1024Y-0.9213
X7.1082Y-1.2008
X7.1132Y-1.3356
X7.1181Y-1.2756
X7.126Y-0.9055
X7.126Y-1.2953
X7.1535Y-1.2913
X7.1614Y-1.2205
X7.1614Y-1.3918
X7.1614Y-1.5276
X7.1624Y-1.1417
X7.1772Y-0.9685
X7.185Y-1.0748
X7.189Y-0.9921
X7.1969Y-1.1024
X7.2008Y-1.5433
X7.2244Y-1.2638
X7.2362Y-1.0984
X7.2638Y-1.1024
X7.2756Y-1.2441
X7.2756Y-1.4094
X7.2835Y-0.8819
T2
X6.3829Y-1.5276
T3
X6.6972Y-1.028
X6.9248Y-1.028
T4
X7.2717Y-1.5433
X7.2717Y-1.622
T5
X6.2992Y-1.4142
X6.2992Y-1.5142
X6.2992Y-1.6142
T0
M30
