%TF.GenerationSoftware,KiCad,Pcbnew,(6.0.7)*%
%TF.CreationDate,2023-09-19T20:50:44-05:00*%
%TF.ProjectId,CounterProject,436f756e-7465-4725-9072-6f6a6563742e,rev?*%
%TF.SameCoordinates,Original*%
%TF.FileFunction,Legend,Bot*%
%TF.FilePolarity,Positive*%
%FSLAX46Y46*%
G04 Gerber Fmt 4.6, Leading zero omitted, Abs format (unit mm)*
G04 Created by KiCad (PCBNEW (6.0.7)) date 2023-09-19 20:50:44*
%MOMM*%
%LPD*%
G01*
G04 APERTURE LIST*
%ADD10C,0.150000*%
%ADD11C,0.500000*%
%ADD12C,0.125000*%
%ADD13C,0.152400*%
%ADD14C,0.508000*%
G04 APERTURE END LIST*
D10*
X162400000Y-26600000D02*
G75*
G03*
X162400000Y-26600000I-1600000J0D01*
G01*
D11*
X159000000Y-21750000D02*
X185700000Y-21750000D01*
X185700000Y-21750000D02*
X185700000Y-41010000D01*
X185700000Y-41010000D02*
X159000000Y-41010000D01*
X159000000Y-41010000D02*
X159000000Y-21750000D01*
D10*
X185500000Y-26500000D02*
G75*
G03*
X185500000Y-26500000I-1600000J0D01*
G01*
X180890476Y-30523809D02*
X180776190Y-30561904D01*
X180585714Y-30561904D01*
X180509523Y-30523809D01*
X180471428Y-30485714D01*
X180433333Y-30409523D01*
X180433333Y-30333333D01*
X180471428Y-30257142D01*
X180509523Y-30219047D01*
X180585714Y-30180952D01*
X180738095Y-30142857D01*
X180814285Y-30104761D01*
X180852380Y-30066666D01*
X180890476Y-29990476D01*
X180890476Y-29914285D01*
X180852380Y-29838095D01*
X180814285Y-29800000D01*
X180738095Y-29761904D01*
X180547619Y-29761904D01*
X180433333Y-29800000D01*
X180090476Y-30028571D02*
X180090476Y-30828571D01*
X180090476Y-30066666D02*
X180014285Y-30028571D01*
X179861904Y-30028571D01*
X179785714Y-30066666D01*
X179747619Y-30104761D01*
X179709523Y-30180952D01*
X179709523Y-30409523D01*
X179747619Y-30485714D01*
X179785714Y-30523809D01*
X179861904Y-30561904D01*
X180014285Y-30561904D01*
X180090476Y-30523809D01*
X179023809Y-30561904D02*
X179023809Y-30142857D01*
X179061904Y-30066666D01*
X179138095Y-30028571D01*
X179290476Y-30028571D01*
X179366666Y-30066666D01*
X179023809Y-30523809D02*
X179100000Y-30561904D01*
X179290476Y-30561904D01*
X179366666Y-30523809D01*
X179404761Y-30447619D01*
X179404761Y-30371428D01*
X179366666Y-30295238D01*
X179290476Y-30257142D01*
X179100000Y-30257142D01*
X179023809Y-30219047D01*
X178642857Y-30561904D02*
X178642857Y-30028571D01*
X178642857Y-30180952D02*
X178604761Y-30104761D01*
X178566666Y-30066666D01*
X178490476Y-30028571D01*
X178414285Y-30028571D01*
X178185714Y-30523809D02*
X178109523Y-30561904D01*
X177957142Y-30561904D01*
X177880952Y-30523809D01*
X177842857Y-30447619D01*
X177842857Y-30409523D01*
X177880952Y-30333333D01*
X177957142Y-30295238D01*
X178071428Y-30295238D01*
X178147619Y-30257142D01*
X178185714Y-30180952D01*
X178185714Y-30142857D01*
X178147619Y-30066666D01*
X178071428Y-30028571D01*
X177957142Y-30028571D01*
X177880952Y-30066666D01*
X177195238Y-30523809D02*
X177271428Y-30561904D01*
X177423809Y-30561904D01*
X177500000Y-30523809D01*
X177538095Y-30447619D01*
X177538095Y-30142857D01*
X177500000Y-30066666D01*
X177423809Y-30028571D01*
X177271428Y-30028571D01*
X177195238Y-30066666D01*
X177157142Y-30142857D01*
X177157142Y-30219047D01*
X177538095Y-30295238D01*
X176204761Y-30561904D02*
X176204761Y-30028571D01*
X176204761Y-29761904D02*
X176242857Y-29800000D01*
X176204761Y-29838095D01*
X176166666Y-29800000D01*
X176204761Y-29761904D01*
X176204761Y-29838095D01*
X175861904Y-30523809D02*
X175785714Y-30561904D01*
X175633333Y-30561904D01*
X175557142Y-30523809D01*
X175519047Y-30447619D01*
X175519047Y-30409523D01*
X175557142Y-30333333D01*
X175633333Y-30295238D01*
X175747619Y-30295238D01*
X175823809Y-30257142D01*
X175861904Y-30180952D01*
X175861904Y-30142857D01*
X175823809Y-30066666D01*
X175747619Y-30028571D01*
X175633333Y-30028571D01*
X175557142Y-30066666D01*
X174566666Y-30561904D02*
X174566666Y-29761904D01*
X174566666Y-30066666D02*
X174490476Y-30028571D01*
X174338095Y-30028571D01*
X174261904Y-30066666D01*
X174223809Y-30104761D01*
X174185714Y-30180952D01*
X174185714Y-30409523D01*
X174223809Y-30485714D01*
X174261904Y-30523809D01*
X174338095Y-30561904D01*
X174490476Y-30561904D01*
X174566666Y-30523809D01*
X173538095Y-30523809D02*
X173614285Y-30561904D01*
X173766666Y-30561904D01*
X173842857Y-30523809D01*
X173880952Y-30447619D01*
X173880952Y-30142857D01*
X173842857Y-30066666D01*
X173766666Y-30028571D01*
X173614285Y-30028571D01*
X173538095Y-30066666D01*
X173500000Y-30142857D01*
X173500000Y-30219047D01*
X173880952Y-30295238D01*
X173271428Y-30028571D02*
X172966666Y-30028571D01*
X173157142Y-29761904D02*
X173157142Y-30447619D01*
X173119047Y-30523809D01*
X173042857Y-30561904D01*
X172966666Y-30561904D01*
X172814285Y-30028571D02*
X172509523Y-30028571D01*
X172700000Y-29761904D02*
X172700000Y-30447619D01*
X172661904Y-30523809D01*
X172585714Y-30561904D01*
X172509523Y-30561904D01*
X171938095Y-30523809D02*
X172014285Y-30561904D01*
X172166666Y-30561904D01*
X172242857Y-30523809D01*
X172280952Y-30447619D01*
X172280952Y-30142857D01*
X172242857Y-30066666D01*
X172166666Y-30028571D01*
X172014285Y-30028571D01*
X171938095Y-30066666D01*
X171900000Y-30142857D01*
X171900000Y-30219047D01*
X172280952Y-30295238D01*
X171557142Y-30561904D02*
X171557142Y-30028571D01*
X171557142Y-30180952D02*
X171519047Y-30104761D01*
X171480952Y-30066666D01*
X171404761Y-30028571D01*
X171328571Y-30028571D01*
X170566666Y-30028571D02*
X170261904Y-30028571D01*
X170452380Y-29761904D02*
X170452380Y-30447619D01*
X170414285Y-30523809D01*
X170338095Y-30561904D01*
X170261904Y-30561904D01*
X169995238Y-30561904D02*
X169995238Y-29761904D01*
X169652380Y-30561904D02*
X169652380Y-30142857D01*
X169690476Y-30066666D01*
X169766666Y-30028571D01*
X169880952Y-30028571D01*
X169957142Y-30066666D01*
X169995238Y-30104761D01*
X168928571Y-30561904D02*
X168928571Y-30142857D01*
X168966666Y-30066666D01*
X169042857Y-30028571D01*
X169195238Y-30028571D01*
X169271428Y-30066666D01*
X168928571Y-30523809D02*
X169004761Y-30561904D01*
X169195238Y-30561904D01*
X169271428Y-30523809D01*
X169309523Y-30447619D01*
X169309523Y-30371428D01*
X169271428Y-30295238D01*
X169195238Y-30257142D01*
X169004761Y-30257142D01*
X168928571Y-30219047D01*
X168547619Y-30028571D02*
X168547619Y-30561904D01*
X168547619Y-30104761D02*
X168509523Y-30066666D01*
X168433333Y-30028571D01*
X168319047Y-30028571D01*
X168242857Y-30066666D01*
X168204761Y-30142857D01*
X168204761Y-30561904D01*
X166871428Y-30561904D02*
X166871428Y-29761904D01*
X166871428Y-30523809D02*
X166947619Y-30561904D01*
X167100000Y-30561904D01*
X167176190Y-30523809D01*
X167214285Y-30485714D01*
X167252380Y-30409523D01*
X167252380Y-30180952D01*
X167214285Y-30104761D01*
X167176190Y-30066666D01*
X167100000Y-30028571D01*
X166947619Y-30028571D01*
X166871428Y-30066666D01*
X166185714Y-30523809D02*
X166261904Y-30561904D01*
X166414285Y-30561904D01*
X166490476Y-30523809D01*
X166528571Y-30447619D01*
X166528571Y-30142857D01*
X166490476Y-30066666D01*
X166414285Y-30028571D01*
X166261904Y-30028571D01*
X166185714Y-30066666D01*
X166147619Y-30142857D01*
X166147619Y-30219047D01*
X166528571Y-30295238D01*
X165804761Y-30028571D02*
X165804761Y-30561904D01*
X165804761Y-30104761D02*
X165766666Y-30066666D01*
X165690476Y-30028571D01*
X165576190Y-30028571D01*
X165500000Y-30066666D01*
X165461904Y-30142857D01*
X165461904Y-30561904D01*
X165119047Y-30523809D02*
X165042857Y-30561904D01*
X164890476Y-30561904D01*
X164814285Y-30523809D01*
X164776190Y-30447619D01*
X164776190Y-30409523D01*
X164814285Y-30333333D01*
X164890476Y-30295238D01*
X165004761Y-30295238D01*
X165080952Y-30257142D01*
X165119047Y-30180952D01*
X165119047Y-30142857D01*
X165080952Y-30066666D01*
X165004761Y-30028571D01*
X164890476Y-30028571D01*
X164814285Y-30066666D01*
X164128571Y-30523809D02*
X164204761Y-30561904D01*
X164357142Y-30561904D01*
X164433333Y-30523809D01*
X164471428Y-30447619D01*
X164471428Y-30142857D01*
X164433333Y-30066666D01*
X164357142Y-30028571D01*
X164204761Y-30028571D01*
X164128571Y-30066666D01*
X164090476Y-30142857D01*
X164090476Y-30219047D01*
X164471428Y-30295238D01*
X163747619Y-30485714D02*
X163709523Y-30523809D01*
X163747619Y-30561904D01*
X163785714Y-30523809D01*
X163747619Y-30485714D01*
X163747619Y-30561904D01*
%TO.C,SW1*%
X162666666Y-34495238D02*
X162809523Y-34447619D01*
X163047619Y-34447619D01*
X163142857Y-34495238D01*
X163190476Y-34542857D01*
X163238095Y-34638095D01*
X163238095Y-34733333D01*
X163190476Y-34828571D01*
X163142857Y-34876190D01*
X163047619Y-34923809D01*
X162857142Y-34971428D01*
X162761904Y-35019047D01*
X162714285Y-35066666D01*
X162666666Y-35161904D01*
X162666666Y-35257142D01*
X162714285Y-35352380D01*
X162761904Y-35400000D01*
X162857142Y-35447619D01*
X163095238Y-35447619D01*
X163238095Y-35400000D01*
X163571428Y-35447619D02*
X163809523Y-34447619D01*
X164000000Y-35161904D01*
X164190476Y-34447619D01*
X164428571Y-35447619D01*
X165333333Y-34447619D02*
X164761904Y-34447619D01*
X165047619Y-34447619D02*
X165047619Y-35447619D01*
X164952380Y-35304761D01*
X164857142Y-35209523D01*
X164761904Y-35161904D01*
%TO.C,SW3*%
X165333333Y-23404761D02*
X165190476Y-23452380D01*
X164952380Y-23452380D01*
X164857142Y-23404761D01*
X164809523Y-23357142D01*
X164761904Y-23261904D01*
X164761904Y-23166666D01*
X164809523Y-23071428D01*
X164857142Y-23023809D01*
X164952380Y-22976190D01*
X165142857Y-22928571D01*
X165238095Y-22880952D01*
X165285714Y-22833333D01*
X165333333Y-22738095D01*
X165333333Y-22642857D01*
X165285714Y-22547619D01*
X165238095Y-22500000D01*
X165142857Y-22452380D01*
X164904761Y-22452380D01*
X164761904Y-22500000D01*
X164428571Y-22452380D02*
X164190476Y-23452380D01*
X164000000Y-22738095D01*
X163809523Y-23452380D01*
X163571428Y-22452380D01*
X163285714Y-22452380D02*
X162666666Y-22452380D01*
X163000000Y-22833333D01*
X162857142Y-22833333D01*
X162761904Y-22880952D01*
X162714285Y-22928571D01*
X162666666Y-23023809D01*
X162666666Y-23261904D01*
X162714285Y-23357142D01*
X162761904Y-23404761D01*
X162857142Y-23452380D01*
X163142857Y-23452380D01*
X163238095Y-23404761D01*
X163285714Y-23357142D01*
%TO.C,SW4*%
X182333333Y-23404761D02*
X182190476Y-23452380D01*
X181952380Y-23452380D01*
X181857142Y-23404761D01*
X181809523Y-23357142D01*
X181761904Y-23261904D01*
X181761904Y-23166666D01*
X181809523Y-23071428D01*
X181857142Y-23023809D01*
X181952380Y-22976190D01*
X182142857Y-22928571D01*
X182238095Y-22880952D01*
X182285714Y-22833333D01*
X182333333Y-22738095D01*
X182333333Y-22642857D01*
X182285714Y-22547619D01*
X182238095Y-22500000D01*
X182142857Y-22452380D01*
X181904761Y-22452380D01*
X181761904Y-22500000D01*
X181428571Y-22452380D02*
X181190476Y-23452380D01*
X181000000Y-22738095D01*
X180809523Y-23452380D01*
X180571428Y-22452380D01*
X179761904Y-22785714D02*
X179761904Y-23452380D01*
X180000000Y-22404761D02*
X180238095Y-23119047D01*
X179619047Y-23119047D01*
%TO.C,SW2*%
X179666666Y-34595238D02*
X179809523Y-34547619D01*
X180047619Y-34547619D01*
X180142857Y-34595238D01*
X180190476Y-34642857D01*
X180238095Y-34738095D01*
X180238095Y-34833333D01*
X180190476Y-34928571D01*
X180142857Y-34976190D01*
X180047619Y-35023809D01*
X179857142Y-35071428D01*
X179761904Y-35119047D01*
X179714285Y-35166666D01*
X179666666Y-35261904D01*
X179666666Y-35357142D01*
X179714285Y-35452380D01*
X179761904Y-35500000D01*
X179857142Y-35547619D01*
X180095238Y-35547619D01*
X180238095Y-35500000D01*
X180571428Y-35547619D02*
X180809523Y-34547619D01*
X181000000Y-35261904D01*
X181190476Y-34547619D01*
X181428571Y-35547619D01*
X181761904Y-35452380D02*
X181809523Y-35500000D01*
X181904761Y-35547619D01*
X182142857Y-35547619D01*
X182238095Y-35500000D01*
X182285714Y-35452380D01*
X182333333Y-35357142D01*
X182333333Y-35261904D01*
X182285714Y-35119047D01*
X181714285Y-34547619D01*
X182333333Y-34547619D01*
D12*
%TO.C,J2*%
X184666666Y-29926190D02*
X184666666Y-30283333D01*
X184690476Y-30354761D01*
X184738095Y-30402380D01*
X184809523Y-30426190D01*
X184857142Y-30426190D01*
X184452380Y-29973809D02*
X184428571Y-29950000D01*
X184380952Y-29926190D01*
X184261904Y-29926190D01*
X184214285Y-29950000D01*
X184190476Y-29973809D01*
X184166666Y-30021428D01*
X184166666Y-30069047D01*
X184190476Y-30140476D01*
X184476190Y-30426190D01*
X184166666Y-30426190D01*
D13*
%TO.C,J1*%
X174381000Y-25400000D02*
G75*
G03*
X174381000Y-25400000I-381000J0D01*
G01*
%TO.C,SW1*%
X162636189Y-33476000D02*
X165363811Y-33476000D01*
X165363811Y-36524000D02*
X162636189Y-36524000D01*
%TO.C,SW3*%
X162636189Y-21476000D02*
X165363811Y-21476000D01*
X165363811Y-24524000D02*
X162636189Y-24524000D01*
%TO.C,SW4*%
X182363811Y-24524000D02*
X179636189Y-24524000D01*
X179636189Y-21476000D02*
X182363811Y-21476000D01*
%TO.C,SW2*%
X179636189Y-33476000D02*
X182363811Y-33476000D01*
X182363811Y-36524000D02*
X179636189Y-36524000D01*
D14*
X177700000Y-34100000D02*
G75*
G03*
X177700000Y-34100000I-12310J0D01*
G01*
%TD*%
M02*
