%TF.GenerationSoftware,KiCad,Pcbnew,(6.0.7)*%
%TF.CreationDate,2023-09-19T20:50:44-05:00*%
%TF.ProjectId,CounterProject,436f756e-7465-4725-9072-6f6a6563742e,rev?*%
%TF.SameCoordinates,Original*%
%TF.FileFunction,Soldermask,Top*%
%TF.FilePolarity,Negative*%
%FSLAX46Y46*%
G04 Gerber Fmt 4.6, Leading zero omitted, Abs format (unit mm)*
G04 Created by KiCad (PCBNEW (6.0.7)) date 2023-09-19 20:50:44*
%MOMM*%
%LPD*%
G01*
G04 APERTURE LIST*
G04 Aperture macros list*
%AMRoundRect*
0 Rectangle with rounded corners*
0 $1 Rounding radius*
0 $2 $3 $4 $5 $6 $7 $8 $9 X,Y pos of 4 corners*
0 Add a 4 corners polygon primitive as box body*
4,1,4,$2,$3,$4,$5,$6,$7,$8,$9,$2,$3,0*
0 Add four circle primitives for the rounded corners*
1,1,$1+$1,$2,$3*
1,1,$1+$1,$4,$5*
1,1,$1+$1,$6,$7*
1,1,$1+$1,$8,$9*
0 Add four rect primitives between the rounded corners*
20,1,$1+$1,$2,$3,$4,$5,0*
20,1,$1+$1,$4,$5,$6,$7,0*
20,1,$1+$1,$6,$7,$8,$9,0*
20,1,$1+$1,$8,$9,$2,$3,0*%
G04 Aperture macros list end*
%ADD10RoundRect,0.250000X0.325000X0.650000X-0.325000X0.650000X-0.325000X-0.650000X0.325000X-0.650000X0*%
%ADD11RoundRect,0.150000X-0.512500X-0.150000X0.512500X-0.150000X0.512500X0.150000X-0.512500X0.150000X0*%
%ADD12R,1.308000X1.308000*%
%ADD13C,1.308000*%
%ADD14RoundRect,0.250000X-0.312500X-0.625000X0.312500X-0.625000X0.312500X0.625000X-0.312500X0.625000X0*%
%ADD15RoundRect,0.250000X0.312500X0.625000X-0.312500X0.625000X-0.312500X-0.625000X0.312500X-0.625000X0*%
%ADD16RoundRect,0.250000X-0.650000X0.325000X-0.650000X-0.325000X0.650000X-0.325000X0.650000X0.325000X0*%
%ADD17R,1.700000X1.700000*%
%ADD18O,1.700000X1.700000*%
%ADD19RoundRect,0.100000X0.100000X1.170000X-0.100000X1.170000X-0.100000X-1.170000X0.100000X-1.170000X0*%
%ADD20RoundRect,0.250000X0.650000X-0.325000X0.650000X0.325000X-0.650000X0.325000X-0.650000X-0.325000X0*%
%ADD21R,1.320800X0.508000*%
%ADD22O,1.000000X2.100000*%
%ADD23O,0.990600X2.100000*%
%ADD24O,0.990600X2.108200*%
%ADD25C,0.660400*%
%ADD26R,0.584200X1.143000*%
%ADD27R,0.304800X1.143000*%
%ADD28RoundRect,0.150000X0.150000X-0.825000X0.150000X0.825000X-0.150000X0.825000X-0.150000X-0.825000X0*%
%ADD29RoundRect,0.250000X-0.325000X-0.650000X0.325000X-0.650000X0.325000X0.650000X-0.325000X0.650000X0*%
G04 APERTURE END LIST*
D10*
%TO.C,C7*%
X162675000Y-31600000D03*
X159725000Y-31600000D03*
%TD*%
D11*
%TO.C,U3*%
X179200000Y-22150000D03*
X179200000Y-23100000D03*
X179200000Y-24050000D03*
X181475000Y-24050000D03*
X181475000Y-22150000D03*
%TD*%
D12*
%TO.C,BT2*%
X184700000Y-41200000D03*
D13*
X184700000Y-39200000D03*
%TD*%
D14*
%TO.C,R7*%
X159737500Y-22600000D03*
X162662500Y-22600000D03*
%TD*%
D10*
%TO.C,C2*%
X167175000Y-29200000D03*
X164225000Y-29200000D03*
%TD*%
%TO.C,C9*%
X162675000Y-33800000D03*
X159725000Y-33800000D03*
%TD*%
D15*
%TO.C,R3*%
X171662500Y-29200000D03*
X168737500Y-29200000D03*
%TD*%
D16*
%TO.C,C8*%
X173600000Y-31125000D03*
X173600000Y-34075000D03*
%TD*%
D17*
%TO.C,J3*%
X160000000Y-41000000D03*
D18*
X160000000Y-38460000D03*
X160000000Y-35920000D03*
%TD*%
D19*
%TO.C,U4*%
X182400000Y-37000000D03*
X181700000Y-37000000D03*
X181000000Y-37000000D03*
X180300000Y-37000000D03*
X179600000Y-37000000D03*
X178900000Y-37000000D03*
X178200000Y-37000000D03*
X177500000Y-37000000D03*
X176800000Y-37000000D03*
X176100000Y-37000000D03*
X175400000Y-37000000D03*
X174700000Y-37000000D03*
X174000000Y-37000000D03*
X173300000Y-37000000D03*
X172600000Y-37000000D03*
X171900000Y-37000000D03*
X171200000Y-37000000D03*
X170500000Y-37000000D03*
X169800000Y-37000000D03*
X169100000Y-37000000D03*
X168400000Y-37000000D03*
X167700000Y-37000000D03*
X167000000Y-37000000D03*
X166300000Y-37000000D03*
X165600000Y-37000000D03*
X164900000Y-37000000D03*
X164200000Y-37000000D03*
X163500000Y-37000000D03*
X162800000Y-37000000D03*
X162100000Y-37000000D03*
%TD*%
D20*
%TO.C,C1*%
X175800000Y-34075000D03*
X175800000Y-31125000D03*
%TD*%
D10*
%TO.C,C4*%
X167175000Y-33600000D03*
X164225000Y-33600000D03*
%TD*%
%TO.C,C6*%
X171675000Y-33600000D03*
X168725000Y-33600000D03*
%TD*%
D14*
%TO.C,R2*%
X159737500Y-29400000D03*
X162662500Y-29400000D03*
%TD*%
%TO.C,R4*%
X164237500Y-24800000D03*
X167162500Y-24800000D03*
%TD*%
D10*
%TO.C,C5*%
X176175000Y-29200000D03*
X173225000Y-29200000D03*
%TD*%
D21*
%TO.C,U2*%
X179004600Y-25449999D03*
X179004600Y-26400000D03*
X179004600Y-27350001D03*
X181595400Y-27350001D03*
X181595400Y-25449999D03*
%TD*%
D10*
%TO.C,C3*%
X167175000Y-27000000D03*
X164225000Y-27000000D03*
%TD*%
D14*
%TO.C,R8*%
X164237500Y-22600000D03*
X167162500Y-22600000D03*
%TD*%
D15*
%TO.C,R1*%
X171662500Y-31400000D03*
X168737500Y-31400000D03*
%TD*%
D22*
%TO.C,J1*%
X168679998Y-26610800D03*
X168700000Y-22600000D03*
X177300000Y-22600000D03*
X177320002Y-26610800D03*
D23*
X177300000Y-22600000D03*
X168700000Y-22600000D03*
D24*
X177320002Y-26610800D03*
X168679998Y-26610800D03*
D25*
X175889999Y-26110801D03*
X170110001Y-26110801D03*
D26*
X176200000Y-27185800D03*
X175400001Y-27185800D03*
D27*
X174250000Y-27185800D03*
X173250000Y-27185800D03*
X172750000Y-27185800D03*
X171750000Y-27185800D03*
D26*
X169800000Y-27185800D03*
X170599999Y-27185800D03*
D27*
X171250001Y-27185800D03*
X172249999Y-27185800D03*
X173750001Y-27185800D03*
X174749999Y-27185800D03*
%TD*%
D28*
%TO.C,U1*%
X177490000Y-34275000D03*
X178760000Y-34275000D03*
X180030000Y-34275000D03*
X181300000Y-34275000D03*
X182570000Y-34275000D03*
X183840000Y-34275000D03*
X185110000Y-34275000D03*
X185110000Y-29325000D03*
X183840000Y-29325000D03*
X182570000Y-29325000D03*
X181300000Y-29325000D03*
X180030000Y-29325000D03*
X178760000Y-29325000D03*
X177490000Y-29325000D03*
%TD*%
D29*
%TO.C,C10*%
X164225000Y-31400000D03*
X167175000Y-31400000D03*
%TD*%
M02*
