%TF.GenerationSoftware,KiCad,Pcbnew,(6.0.7)*%
%TF.CreationDate,2023-09-19T20:50:44-05:00*%
%TF.ProjectId,CounterProject,436f756e-7465-4725-9072-6f6a6563742e,rev?*%
%TF.SameCoordinates,Original*%
%TF.FileFunction,Copper,L4,Bot*%
%TF.FilePolarity,Positive*%
%FSLAX46Y46*%
G04 Gerber Fmt 4.6, Leading zero omitted, Abs format (unit mm)*
G04 Created by KiCad (PCBNEW (6.0.7)) date 2023-09-19 20:50:44*
%MOMM*%
%LPD*%
G01*
G04 APERTURE LIST*
G04 Aperture macros list*
%AMRoundRect*
0 Rectangle with rounded corners*
0 $1 Rounding radius*
0 $2 $3 $4 $5 $6 $7 $8 $9 X,Y pos of 4 corners*
0 Add a 4 corners polygon primitive as box body*
4,1,4,$2,$3,$4,$5,$6,$7,$8,$9,$2,$3,0*
0 Add four circle primitives for the rounded corners*
1,1,$1+$1,$2,$3*
1,1,$1+$1,$4,$5*
1,1,$1+$1,$6,$7*
1,1,$1+$1,$8,$9*
0 Add four rect primitives between the rounded corners*
20,1,$1+$1,$2,$3,$4,$5,0*
20,1,$1+$1,$4,$5,$6,$7,0*
20,1,$1+$1,$6,$7,$8,$9,0*
20,1,$1+$1,$8,$9,$2,$3,0*%
G04 Aperture macros list end*
%TA.AperFunction,ComponentPad*%
%ADD10R,1.308000X1.308000*%
%TD*%
%TA.AperFunction,ComponentPad*%
%ADD11C,1.308000*%
%TD*%
%TA.AperFunction,ComponentPad*%
%ADD12R,1.700000X1.700000*%
%TD*%
%TA.AperFunction,ComponentPad*%
%ADD13O,1.700000X1.700000*%
%TD*%
%TA.AperFunction,WasherPad*%
%ADD14O,1.000000X2.100000*%
%TD*%
%TA.AperFunction,ComponentPad*%
%ADD15C,0.660400*%
%TD*%
%TA.AperFunction,SMDPad,CuDef*%
%ADD16R,0.889000X0.990600*%
%TD*%
%TA.AperFunction,SMDPad,CuDef*%
%ADD17RoundRect,0.100000X0.130000X0.100000X-0.130000X0.100000X-0.130000X-0.100000X0.130000X-0.100000X0*%
%TD*%
%TA.AperFunction,ViaPad*%
%ADD18C,0.250000*%
%TD*%
%TA.AperFunction,ViaPad*%
%ADD19C,0.800000*%
%TD*%
%TA.AperFunction,Conductor*%
%ADD20C,0.250000*%
%TD*%
G04 APERTURE END LIST*
D10*
%TO.P,BT2,1,+*%
%TO.N,/VBAT*%
X184700000Y-41200000D03*
D11*
%TO.P,BT2,2,-*%
%TO.N,GND*%
X184700000Y-39200000D03*
%TD*%
D12*
%TO.P,J3,1,Pin_1*%
%TO.N,Net-(J3-Pad1)*%
X160000000Y-41000000D03*
D13*
%TO.P,J3,2,Pin_2*%
%TO.N,/VPWR*%
X160000000Y-38460000D03*
%TO.P,J3,3,Pin_3*%
%TO.N,GND*%
X160000000Y-35920000D03*
%TD*%
D14*
%TO.P,J1,*%
%TO.N,*%
X168679998Y-26610800D03*
X168700000Y-22600000D03*
X177300000Y-22600000D03*
X177320002Y-26610800D03*
D15*
%TO.P,J1,17*%
%TO.N,N/C*%
X175889999Y-26110801D03*
%TO.P,J1,18*%
X170110001Y-26110801D03*
%TD*%
D16*
%TO.P,SW1,1,1*%
%TO.N,/SW2_IN*%
X161950002Y-34199999D03*
%TO.P,SW1,2,2*%
X166049998Y-34199999D03*
%TO.P,SW1,3,3*%
%TO.N,GND*%
X161950002Y-35800001D03*
%TO.P,SW1,4,4*%
X166049998Y-35800001D03*
%TD*%
%TO.P,SW3,1,1*%
%TO.N,/SW4_IN*%
X166049998Y-23800001D03*
%TO.P,SW3,2,2*%
X161950002Y-23800001D03*
%TO.P,SW3,3,3*%
%TO.N,GND*%
X166049998Y-22199999D03*
%TO.P,SW3,4,4*%
X161950002Y-22199999D03*
%TD*%
%TO.P,SW4,1,1*%
%TO.N,/SW3_IN*%
X183049998Y-23800001D03*
%TO.P,SW4,2,2*%
X178950002Y-23800001D03*
%TO.P,SW4,3,3*%
%TO.N,GND*%
X183049998Y-22199999D03*
%TO.P,SW4,4,4*%
X178950002Y-22199999D03*
%TD*%
%TO.P,SW2,1,1*%
%TO.N,/SW1_IN*%
X178950002Y-34199999D03*
%TO.P,SW2,2,2*%
X183049998Y-34199999D03*
%TO.P,SW2,3,3*%
%TO.N,GND*%
X178950002Y-35800001D03*
%TO.P,SW2,4,4*%
X183049998Y-35800001D03*
%TD*%
D17*
%TO.P,J2,1,Pin_1*%
%TO.N,GND*%
X184820000Y-31000000D03*
%TO.P,J2,2,Pin_2*%
%TO.N,/DISP*%
X184180000Y-31000000D03*
%TD*%
D18*
%TO.N,/VBAT*%
X179200000Y-27800000D03*
X179200000Y-24650500D03*
X182800000Y-28000000D03*
X182900000Y-39200000D03*
X166000000Y-29700000D03*
X179400000Y-29850000D03*
%TO.N,GND*%
X174700001Y-35800001D03*
X174600000Y-24400000D03*
X170200000Y-28400000D03*
X184800000Y-35800000D03*
X161200000Y-22300000D03*
X173100000Y-30424500D03*
X185000000Y-22400000D03*
D19*
X162124500Y-38800000D03*
D18*
X180400000Y-23400000D03*
X176200539Y-35449500D03*
X184800000Y-31600000D03*
X171300000Y-24400000D03*
X177775255Y-35554815D03*
%TO.N,/SW4_IN*%
X183500000Y-32100000D03*
X165949500Y-25300000D03*
X165024093Y-32559184D03*
%TO.N,/SDA*%
X184500000Y-28000000D03*
X172300000Y-28100000D03*
%TO.N,/SCL*%
X172300000Y-30500000D03*
X183800000Y-27900000D03*
%TO.N,/I2C_PULLUP*%
X180549500Y-30500195D03*
X169700000Y-30400000D03*
%TO.N,/UPDI*%
X181900000Y-31000000D03*
X160600000Y-28400000D03*
%TO.N,/SW1_IN*%
X178114500Y-35100000D03*
%TO.N,/SW2_IN*%
X166100000Y-33100000D03*
X181000000Y-32900000D03*
%TO.N,/VPWR*%
X160600000Y-37400000D03*
X175500000Y-34800000D03*
X177500000Y-31950500D03*
X180800000Y-32400000D03*
X181000000Y-23000000D03*
X167200000Y-35200000D03*
%TO.N,/SW3_IN*%
X182300000Y-24600000D03*
X181700000Y-32800000D03*
%TO.N,Net-(C3-Pad1)*%
X170500000Y-28800000D03*
X168100000Y-28000000D03*
X175200000Y-27900000D03*
X182500000Y-27300000D03*
X175600000Y-25400000D03*
X182600000Y-25200000D03*
X178000000Y-25100000D03*
%TO.N,/DISP_RESET*%
X172400000Y-34750500D03*
X178600000Y-30900000D03*
%TO.N,Net-(C5-Pad1)*%
X179750000Y-32450000D03*
X175200000Y-32400000D03*
X181900000Y-38800000D03*
X174642390Y-30380379D03*
%TO.N,Net-(C5-Pad2)*%
X174300000Y-28930000D03*
X181900000Y-35350501D03*
X181924500Y-29000000D03*
%TO.N,Net-(C6-Pad1)*%
X179200000Y-30900000D03*
X171000000Y-34750500D03*
X170775500Y-31000000D03*
%TO.N,Net-(C6-Pad2)*%
X180675000Y-33925000D03*
X168800000Y-34750500D03*
%TO.N,Net-(C9-Pad2)*%
X164200000Y-34824500D03*
X160600000Y-33800000D03*
%TO.N,Net-(C10-Pad2)*%
X166100000Y-30300000D03*
X165050500Y-30281466D03*
X163500000Y-35200000D03*
%TO.N,/DISP*%
X173500000Y-32024500D03*
X176800000Y-37000000D03*
X178900000Y-37600000D03*
X160800000Y-31600000D03*
X180100000Y-30900000D03*
%TO.N,Net-(J1-PadA5)*%
X174200000Y-24849500D03*
X159700000Y-24000000D03*
%TO.N,Net-(J1-PadB5)*%
X165298524Y-24400506D03*
X170700000Y-25200000D03*
%TD*%
D20*
%TO.N,GND*%
X180299999Y-22199999D02*
X180299999Y-23299999D01*
X166049998Y-35800001D02*
X161950002Y-35800001D01*
X174600000Y-24400000D02*
X177600000Y-24400000D01*
X162124500Y-38044500D02*
X161990000Y-37910000D01*
X177954815Y-35554815D02*
X178200001Y-35800001D01*
X183049998Y-35800001D02*
X178950002Y-35800001D01*
X161650003Y-21900000D02*
X161950002Y-22199999D01*
X176699999Y-35800001D02*
X178950002Y-35800001D01*
X184820000Y-31580000D02*
X184800000Y-31600000D01*
X184820000Y-31000000D02*
X184820000Y-31580000D01*
X184799999Y-22199999D02*
X185000000Y-22400000D01*
X161990000Y-37910000D02*
X160000000Y-35920000D01*
X166049998Y-22199999D02*
X161950002Y-22199999D01*
X161950002Y-37870002D02*
X161990000Y-37910000D01*
X183049998Y-35800001D02*
X183049998Y-37549998D01*
X177775255Y-35554815D02*
X177954815Y-35554815D01*
X174700001Y-35800001D02*
X176699999Y-35800001D01*
X167500000Y-23800000D02*
X168100000Y-24400000D01*
X183049998Y-22199999D02*
X184799999Y-22199999D01*
X180299999Y-22199999D02*
X178950002Y-22199999D01*
X171300000Y-24400000D02*
X174600000Y-24400000D01*
X183049998Y-37549998D02*
X184700000Y-39200000D01*
X168100000Y-24400000D02*
X171300000Y-24400000D01*
X162124500Y-38800000D02*
X162124500Y-38044500D01*
X167500000Y-23200000D02*
X167500000Y-23800000D01*
X183049998Y-22199999D02*
X180299999Y-22199999D01*
X166049998Y-22199999D02*
X166499999Y-22199999D01*
X178180502Y-23819498D02*
X178180502Y-22969499D01*
X177600000Y-24400000D02*
X178180502Y-23819498D01*
X161200000Y-22300000D02*
X161200000Y-21900000D01*
X176349498Y-35449500D02*
X176699999Y-35800001D01*
X180299999Y-23299999D02*
X180400000Y-23400000D01*
X166499999Y-22199999D02*
X167500000Y-23200000D01*
X166049998Y-35800001D02*
X174700001Y-35800001D01*
X161200000Y-21900000D02*
X161650003Y-21900000D01*
X176200539Y-35449500D02*
X176349498Y-35449500D01*
X161950002Y-35800001D02*
X161950002Y-37870002D01*
X184800000Y-35800000D02*
X183049998Y-35800001D01*
X178180502Y-22969499D02*
X178950002Y-22199999D01*
%TO.N,/SW4_IN*%
X165949500Y-23900499D02*
X166049998Y-23800001D01*
X165949500Y-25300000D02*
X165949500Y-23900499D01*
X161950002Y-23800001D02*
X166049998Y-23800001D01*
%TO.N,/SCL*%
X175580500Y-28480500D02*
X175600000Y-28500000D01*
X172400000Y-29600000D02*
X173519500Y-28480500D01*
X183200000Y-28500000D02*
X183800000Y-27900000D01*
X173519500Y-28480500D02*
X175580500Y-28480500D01*
X172300000Y-30500000D02*
X172400000Y-29600000D01*
X175600000Y-28500000D02*
X183200000Y-28500000D01*
%TO.N,/I2C_PULLUP*%
X177300000Y-31100000D02*
X177900000Y-30500000D01*
X179780000Y-30320000D02*
X179800000Y-30300000D01*
X177900000Y-30500000D02*
X178080000Y-30320000D01*
X180349305Y-30300000D02*
X180549500Y-30500195D01*
X173800000Y-31100000D02*
X177300000Y-31100000D01*
X171900000Y-31100000D02*
X173800000Y-31100000D01*
X169700000Y-30400000D02*
X171200000Y-30400000D01*
X178080000Y-30320000D02*
X179780000Y-30320000D01*
X171200000Y-30400000D02*
X171500000Y-30700000D01*
X171500000Y-30700000D02*
X171900000Y-31100000D01*
X179800000Y-30300000D02*
X180349305Y-30300000D01*
%TO.N,/SW1_IN*%
X178950002Y-34264498D02*
X178114500Y-35100000D01*
X181500000Y-34600000D02*
X181900001Y-34199999D01*
X181900001Y-34199999D02*
X183049998Y-34199999D01*
X178950002Y-34199999D02*
X178950002Y-34264498D01*
X180400000Y-34600000D02*
X181500000Y-34600000D01*
X178950002Y-34199999D02*
X179999999Y-34199999D01*
X179999999Y-34199999D02*
X180400000Y-34600000D01*
%TO.N,/SW2_IN*%
X166100000Y-34149997D02*
X166049998Y-34199999D01*
X166100000Y-33100000D02*
X166100000Y-34149997D01*
X166049998Y-34199999D02*
X161950002Y-34199999D01*
%TO.N,/SW3_IN*%
X182300000Y-24549999D02*
X183049998Y-23800001D01*
X180100001Y-23800001D02*
X180500000Y-24200000D01*
X182300000Y-24600000D02*
X182300000Y-24549999D01*
X178950002Y-23800001D02*
X180100001Y-23800001D01*
X180500000Y-24200000D02*
X180899999Y-23800001D01*
X180899999Y-23800001D02*
X183049998Y-23800001D01*
%TO.N,/DISP_RESET*%
X178500000Y-32300000D02*
X177900000Y-32700000D01*
X178600000Y-30900000D02*
X178500000Y-32300000D01*
X177900000Y-32700000D02*
X174050500Y-33100000D01*
X174050500Y-33100000D02*
X172400000Y-34750500D01*
%TO.N,Net-(C6-Pad2)*%
X178100000Y-33600000D02*
X176800000Y-34900000D01*
X172470000Y-35270000D02*
X172400000Y-35200000D01*
X178100000Y-33460201D02*
X178100000Y-33600000D01*
X172400000Y-35200000D02*
X169249500Y-35200000D01*
X176100000Y-34900000D02*
X175730000Y-35270000D01*
X169249500Y-35200000D02*
X168800000Y-34750500D01*
X175730000Y-35270000D02*
X172470000Y-35270000D01*
X178560201Y-33000000D02*
X178100000Y-33460201D01*
X176800000Y-34900000D02*
X176100000Y-34900000D01*
X180675000Y-33925000D02*
X180675000Y-33675000D01*
X180000000Y-33000000D02*
X178560201Y-33000000D01*
X180675000Y-33675000D02*
X180000000Y-33000000D01*
%TO.N,/DISP*%
X184180000Y-31000000D02*
X183500000Y-31000000D01*
X177400000Y-37600000D02*
X176800000Y-37000000D01*
X178900000Y-37600000D02*
X177400000Y-37600000D01*
X182900000Y-31600000D02*
X180800000Y-31600000D01*
X180800000Y-31600000D02*
X180100000Y-30900000D01*
X183500000Y-31000000D02*
X182900000Y-31600000D01*
%TD*%
M02*
